<svg width="20" height="20" viewBox="0 0 20 20" fill="none" xmlns="http://www.w3.org/2000/svg">
<path d="M2.98226 7.36522L9.98226 14.3861C10.0656 14.4694 10.1559 14.5286 10.2531 14.5636C10.3503 14.5986 10.4545 14.6158 10.5656 14.6152C10.6767 14.6152 10.7809 14.5977 10.8781 14.5627C10.9753 14.5277 11.0656 14.4688 11.1489 14.3861L18.1698 7.36522C18.3642 7.17078 18.4614 6.92772 18.4614 6.63605C18.4614 6.34439 18.3573 6.09439 18.1489 5.88606C17.9406 5.67772 17.6975 5.57356 17.4198 5.57356C17.142 5.57356 16.8989 5.67772 16.6906 5.88606L10.5656 12.0111L4.44059 5.88606C4.24614 5.69161 4.00642 5.59439 3.72142 5.59439C3.43642 5.59439 3.19003 5.69856 2.98226 5.90689C2.77392 6.11522 2.66976 6.35828 2.66976 6.63606C2.66976 6.91383 2.77392 7.15689 2.98226 7.36522Z" fill="#DDDDDD"/>
</svg>
