<svg width="20" height="20" viewBox="0 0 20 20" fill="none" xmlns="http://www.w3.org/2000/svg">
<path d="M2.98238 7.36547L9.98238 14.3863C10.0657 14.4696 10.156 14.5288 10.2532 14.5638C10.3504 14.5988 10.4546 14.616 10.5657 14.6155C10.6768 14.6155 10.781 14.598 10.8782 14.563C10.9754 14.528 11.0657 14.4691 11.149 14.3863L18.1699 7.36547C18.3643 7.17102 18.4615 6.92797 18.4615 6.6363C18.4615 6.34463 18.3574 6.09463 18.149 5.8863C17.9407 5.67797 17.6977 5.5738 17.4199 5.5738C17.1421 5.5738 16.899 5.67797 16.6907 5.8863L10.5657 12.0113L4.44071 5.8863C4.24627 5.69186 4.00655 5.59463 3.72155 5.59463C3.43655 5.59463 3.19016 5.6988 2.98238 5.90713C2.77404 6.11547 2.66988 6.35852 2.66988 6.6363C2.66988 6.91408 2.77404 7.15713 2.98238 7.36547Z" fill="white"/>
</svg>
