<svg width="26" height="26" viewBox="0 0 26 26" fill="none" xmlns="http://www.w3.org/2000/svg">
<path d="M22.75 20.5833V21.6667H3.25V20.5833L5.41667 18.4167V11.9167C5.41667 8.55833 7.61583 5.60083 10.8333 4.6475V4.33333C10.8333 3.7587 11.0616 3.20759 11.4679 2.80127C11.8743 2.39494 12.4254 2.16666 13 2.16666C13.5746 2.16666 14.1257 2.39494 14.5321 2.80127C14.9384 3.20759 15.1667 3.7587 15.1667 4.33333V4.6475C18.3842 5.60083 20.5833 8.55833 20.5833 11.9167V18.4167L22.75 20.5833ZM15.1667 22.75C15.1667 23.3246 14.9384 23.8757 14.5321 24.2821C14.1257 24.6884 13.5746 24.9167 13 24.9167C12.4254 24.9167 11.8743 24.6884 11.4679 24.2821C11.0616 23.8757 10.8333 23.3246 10.8333 22.75" fill="#353535"/>
</svg>
