<svg width="26" height="26" viewBox="0 0 26 26" fill="none" xmlns="http://www.w3.org/2000/svg">
<path d="M13 15.1668C12.6931 15.1668 12.4356 15.0628 12.2276 14.8548C12.0196 14.6468 11.9159 14.3896 11.9167 14.0834C11.9167 13.7765 12.0207 13.519 12.2287 13.311C12.4367 13.103 12.6938 12.9994 13 13.0001C13.3069 13.0001 13.5644 13.1041 13.7724 13.3121C13.9804 13.5201 14.0841 13.7772 14.0833 14.0834C14.0833 14.3904 13.9793 14.6478 13.7713 14.8558C13.5633 15.0638 13.3062 15.1675 13 15.1668ZM8.66667 15.1668C8.35972 15.1668 8.10225 15.0628 7.89425 14.8548C7.68625 14.6468 7.58261 14.3896 7.58334 14.0834C7.58334 13.7765 7.68734 13.519 7.89534 13.311C8.10334 13.103 8.36045 12.9994 8.66667 13.0001C8.97361 13.0001 9.23109 13.1041 9.43909 13.3121C9.64709 13.5201 9.75072 13.7772 9.75 14.0834C9.75 14.3904 9.646 14.6478 9.438 14.8558C9.23 15.0638 8.97289 15.1675 8.66667 15.1668ZM17.3333 15.1668C17.0264 15.1668 16.7689 15.0628 16.5609 14.8548C16.3529 14.6468 16.2493 14.3896 16.25 14.0834C16.25 13.7765 16.354 13.519 16.562 13.311C16.77 13.103 17.0271 12.9994 17.3333 13.0001C17.6403 13.0001 17.8978 13.1041 18.1058 13.3121C18.3138 13.5201 18.4174 13.7772 18.4167 14.0834C18.4167 14.3904 18.3127 14.6478 18.1047 14.8558C17.8967 15.0638 17.6396 15.1675 17.3333 15.1668ZM13 19.5001C12.6931 19.5001 12.4356 19.3961 12.2276 19.1881C12.0196 18.9801 11.9159 18.723 11.9167 18.4168C11.9167 18.1098 12.0207 17.8523 12.2287 17.6443C12.4367 17.4363 12.6938 17.3327 13 17.3334C13.3069 17.3334 13.5644 17.4374 13.7724 17.6454C13.9804 17.8534 14.0841 18.1105 14.0833 18.4168C14.0833 18.7237 13.9793 18.9812 13.7713 19.1892C13.5633 19.3972 13.3062 19.5008 13 19.5001ZM8.66667 19.5001C8.35972 19.5001 8.10225 19.3961 7.89425 19.1881C7.68625 18.9801 7.58261 18.723 7.58334 18.4168C7.58334 18.1098 7.68734 17.8523 7.89534 17.6443C8.10334 17.4363 8.36045 17.3327 8.66667 17.3334C8.97361 17.3334 9.23109 17.4374 9.43909 17.6454C9.64709 17.8534 9.75072 18.1105 9.75 18.4168C9.75 18.7237 9.646 18.9812 9.438 19.1892C9.23 19.3972 8.97289 19.5008 8.66667 19.5001ZM17.3333 19.5001C17.0264 19.5001 16.7689 19.3961 16.5609 19.1881C16.3529 18.9801 16.2493 18.723 16.25 18.4168C16.25 18.1098 16.354 17.8523 16.562 17.6443C16.77 17.4363 17.0271 17.3327 17.3333 17.3334C17.6403 17.3334 17.8978 17.4374 18.1058 17.6454C18.3138 17.8534 18.4174 18.1105 18.4167 18.4168C18.4167 18.7237 18.3127 18.9812 18.1047 19.1892C17.8967 19.3972 17.6396 19.5008 17.3333 19.5001ZM5.41667 23.8334C4.82084 23.8334 4.31059 23.6211 3.88592 23.1964C3.46125 22.7718 3.24928 22.2619 3.25 21.6668V6.50009C3.25 5.90425 3.46234 5.394 3.887 4.96934C4.31167 4.54467 4.82156 4.3327 5.41667 4.33342H6.5V3.25009C6.5 2.94314 6.604 2.68567 6.812 2.47767C7.02 2.26967 7.27711 2.16603 7.58334 2.16675C7.89028 2.16675 8.14775 2.27075 8.35575 2.47875C8.56375 2.68675 8.66739 2.94386 8.66667 3.25009V4.33342H17.3333V3.25009C17.3333 2.94314 17.4373 2.68567 17.6453 2.47767C17.8533 2.26967 18.1104 2.16603 18.4167 2.16675C18.7236 2.16675 18.9811 2.27075 19.1891 2.47875C19.3971 2.68675 19.5007 2.94386 19.5 3.25009V4.33342H20.5833C21.1792 4.33342 21.6894 4.54575 22.1141 4.97042C22.5388 5.39509 22.7507 5.90497 22.75 6.50009V21.6668C22.75 22.2626 22.5377 22.7728 22.113 23.1975C21.6883 23.6222 21.1784 23.8341 20.5833 23.8334H5.41667ZM5.41667 21.6668H20.5833V10.8334H5.41667V21.6668Z" fill="#353535"/>
</svg>
