<svg width="26" height="26" viewBox="0 0 26 26" fill="none" xmlns="http://www.w3.org/2000/svg">
<path d="M9.57003 20.3176C9.95456 20.3176 10.2663 20.0058 10.2663 19.6213C10.2663 19.2368 9.95456 18.925 9.57003 18.925C9.1855 18.925 8.87378 19.2368 8.87378 19.6213C8.87378 20.0058 9.1855 20.3176 9.57003 20.3176Z" stroke="white" stroke-width="1.625" stroke-linecap="round" stroke-linejoin="round"/>
<path d="M19.3176 20.3176C19.7021 20.3176 20.0138 20.0058 20.0138 19.6213C20.0138 19.2368 19.7021 18.925 19.3176 18.925C18.9331 18.925 18.6213 19.2368 18.6213 19.6213C18.6213 20.0058 18.9331 20.3176 19.3176 20.3176Z" stroke="white" stroke-width="1.625" stroke-linecap="round" stroke-linejoin="round"/>
<path d="M4 5H6.78502L8.87378 16.8363H20.0138" stroke="white" stroke-width="1.625" stroke-linecap="round" stroke-linejoin="round"/>
<path d="M8.87377 14.0514H19.7284C19.8089 14.0515 19.8869 14.0236 19.9492 13.9726C20.0115 13.9216 20.0542 13.8505 20.07 13.7716L21.3232 7.50531C21.3333 7.45479 21.3321 7.40264 21.3196 7.35265C21.3071 7.30265 21.2837 7.25605 21.251 7.21621C21.2183 7.17637 21.1772 7.14428 21.1306 7.12226C21.0841 7.10024 21.0332 7.08883 20.9816 7.08887H7.48126" stroke="white" stroke-width="1.625" stroke-linecap="round" stroke-linejoin="round"/>
</svg>
