<svg width="26" height="26" viewBox="0 0 26 26" fill="none" xmlns="http://www.w3.org/2000/svg">
<path d="M9.57003 20.3178C9.95456 20.3178 10.2663 20.0061 10.2663 19.6215C10.2663 19.237 9.95456 18.9253 9.57003 18.9253C9.1855 18.9253 8.87378 19.237 8.87378 19.6215C8.87378 20.0061 9.1855 20.3178 9.57003 20.3178Z" stroke="#DDDDDD" stroke-width="1.625" stroke-linecap="round" stroke-linejoin="round"/>
<path d="M19.3176 20.3178C19.7021 20.3178 20.0138 20.0061 20.0138 19.6215C20.0138 19.237 19.7021 18.9253 19.3176 18.9253C18.9331 18.9253 18.6213 19.237 18.6213 19.6215C18.6213 20.0061 18.9331 20.3178 19.3176 20.3178Z" stroke="#DDDDDD" stroke-width="1.625" stroke-linecap="round" stroke-linejoin="round"/>
<path d="M4 5H6.78502L8.87378 16.8363H20.0138" stroke="#DDDDDD" stroke-width="1.625" stroke-linecap="round" stroke-linejoin="round"/>
<path d="M8.87371 14.0514H19.7283C19.8088 14.0515 19.8869 14.0236 19.9491 13.9726C20.0114 13.9216 20.0541 13.8505 20.0699 13.7716L21.3232 7.50531C21.3333 7.45479 21.332 7.40264 21.3196 7.35265C21.3071 7.30265 21.2836 7.25605 21.251 7.21621C21.2183 7.17637 21.1772 7.14428 21.1306 7.12226C21.084 7.10024 21.0331 7.08883 20.9816 7.08887H7.4812" stroke="#DDDDDD" stroke-width="1.625" stroke-linecap="round" stroke-linejoin="round"/>
</svg>
