<svg width="26" height="26" viewBox="0 0 26 26" fill="none" xmlns="http://www.w3.org/2000/svg">
<path d="M9.56979 20.3176C9.95432 20.3176 10.266 20.0058 10.266 19.6213C10.266 19.2368 9.95432 18.925 9.56979 18.925C9.18526 18.925 8.87354 19.2368 8.87354 19.6213C8.87354 20.0058 9.18526 20.3176 9.56979 20.3176Z" stroke="#D9D9D9" stroke-width="1.625" stroke-linecap="round" stroke-linejoin="round"/>
<path d="M19.3173 20.3176C19.7019 20.3176 20.0136 20.0058 20.0136 19.6213C20.0136 19.2368 19.7019 18.925 19.3173 18.925C18.9328 18.925 18.6211 19.2368 18.6211 19.6213C18.6211 20.0058 18.9328 20.3176 19.3173 20.3176Z" stroke="#D9D9D9" stroke-width="1.625" stroke-linecap="round" stroke-linejoin="round"/>
<path d="M4 5H6.78502L8.87378 16.8363H20.0138" stroke="#D9D9D9" stroke-width="1.625" stroke-linecap="round" stroke-linejoin="round"/>
<path d="M8.87395 14.0513H19.7286C19.8091 14.0513 19.8871 14.0235 19.9494 13.9725C20.0117 13.9215 20.0543 13.8504 20.0702 13.7715L21.3234 7.50519C21.3335 7.45466 21.3323 7.40252 21.3198 7.35252C21.3073 7.30253 21.2839 7.25593 21.2512 7.21609C21.2185 7.17625 21.1774 7.14416 21.1308 7.12214C21.0842 7.10011 21.0333 7.08871 20.9818 7.08875H7.48145" stroke="#D9D9D9" stroke-width="1.625" stroke-linecap="round" stroke-linejoin="round"/>
</svg>
