<svg width="66" height="66" viewBox="0 0 66 66" fill="none" xmlns="http://www.w3.org/2000/svg">
<path d="M29.15 37.95L23.2375 32.0375C22.7333 31.5333 22.0917 31.2812 21.3125 31.2812C20.5333 31.2812 19.8917 31.5333 19.3875 32.0375C18.8833 32.5417 18.6313 33.1833 18.6313 33.9625C18.6313 34.7417 18.8833 35.3833 19.3875 35.8875L27.225 43.725C27.775 44.275 28.4167 44.55 29.15 44.55C29.8833 44.55 30.525 44.275 31.075 43.725L46.6125 28.1875C47.1167 27.6833 47.3688 27.0417 47.3688 26.2625C47.3688 25.4833 47.1167 24.8417 46.6125 24.3375C46.1083 23.8333 45.4667 23.5812 44.6875 23.5812C43.9083 23.5812 43.2667 23.8333 42.7625 24.3375L29.15 37.95ZM33 60.5C29.1958 60.5 25.6208 59.7777 22.275 58.333C18.9292 56.8883 16.0188 54.9294 13.5438 52.4563C11.0688 49.9813 9.10983 47.0708 7.667 43.725C6.22417 40.3792 5.50183 36.8042 5.5 33C5.5 29.1958 6.22233 25.6208 7.667 22.275C9.11167 18.9292 11.0706 16.0188 13.5438 13.5438C16.0188 11.0688 18.9292 9.10983 22.275 7.667C25.6208 6.22417 29.1958 5.50183 33 5.5C36.8042 5.5 40.3792 6.22233 43.725 7.667C47.0708 9.11167 49.9813 11.0706 52.4563 13.5438C54.9313 16.0188 56.8911 18.9292 58.3357 22.275C59.7804 25.6208 60.5018 29.1958 60.5 33C60.5 36.8042 59.7777 40.3792 58.333 43.725C56.8883 47.0708 54.9294 49.9813 52.4563 52.4563C49.9813 54.9313 47.0708 56.8911 43.725 58.3357C40.3792 59.7804 36.8042 60.5018 33 60.5Z" fill="white"/>
</svg>
