<svg width="79" height="79" viewBox="0 0 79 79" fill="none" xmlns="http://www.w3.org/2000/svg">
<path d="M72.9053 31.7852H53.1553C52.8159 31.7852 52.5381 32.0629 52.5381 32.4023V36.1055C52.5381 36.4449 52.8159 36.7227 53.1553 36.7227H72.9053C73.2448 36.7227 73.5225 36.4449 73.5225 36.1055V32.4023C73.5225 32.0629 73.2448 31.7852 72.9053 31.7852ZM62.5674 42.2773H53.1553C52.8159 42.2773 52.5381 42.5551 52.5381 42.8945V46.5977C52.5381 46.9371 52.8159 47.2148 53.1553 47.2148H62.5674C62.9069 47.2148 63.1846 46.9371 63.1846 46.5977V42.8945C63.1846 42.5551 62.9069 42.2773 62.5674 42.2773ZM36.823 24.8804H33.4825C33.0042 24.8804 32.6184 25.2661 32.6184 25.7444V44.8772C32.6184 45.155 32.7496 45.4096 32.9733 45.5716L44.4607 53.9499C44.8464 54.2276 45.3865 54.1505 45.6642 53.7647L47.6469 51.0568V51.0491C47.9247 50.6634 47.8398 50.1233 47.4541 49.8456L37.6793 42.7788V25.7444C37.6871 25.2661 37.2936 24.8804 36.823 24.8804Z" fill="#353535"/>
<path d="M62.0891 51.9903H57.6299C57.1979 51.9903 56.789 52.2141 56.5576 52.5844C55.5778 54.1351 54.436 55.57 53.1245 56.8815C50.864 59.142 48.2333 60.9164 45.3093 62.1508C42.2774 63.4314 39.0603 64.0795 35.7429 64.0795C32.4178 64.0795 29.2007 63.4314 26.1765 62.1508C23.2526 60.9164 20.6218 59.142 18.3614 56.8815C16.1009 54.6211 14.3265 51.9903 13.0921 49.0664C11.8115 46.0422 11.1634 42.8251 11.1634 39.5C11.1634 36.1749 11.8115 32.9655 13.0921 29.9336C14.3265 27.0097 16.1009 24.3789 18.3614 22.1185C20.6218 19.858 23.2526 18.0836 26.1765 16.8492C29.2007 15.5686 32.4255 14.9205 35.7429 14.9205C39.068 14.9205 42.2851 15.5686 45.3093 16.8492C48.2333 18.0836 50.864 19.858 53.1245 22.1185C54.436 23.43 55.5778 24.865 56.5576 26.4156C56.789 26.7859 57.1979 27.0097 57.6299 27.0097H62.0891C62.6214 27.0097 62.9609 26.4542 62.7217 25.9836C57.6917 15.9775 47.4926 9.47384 36.1055 9.34269C19.4337 9.13438 5.5856 22.7819 5.55474 39.4383C5.52388 56.1255 19.048 69.665 35.7352 69.665C47.2689 69.665 57.6376 63.1383 62.7217 53.0164C62.9609 52.5458 62.6137 51.9903 62.0891 51.9903Z" fill="#353535"/>
</svg>
