<svg width="32" height="32" viewBox="0 0 32 32" fill="none" xmlns="http://www.w3.org/2000/svg">
<path d="M18.1213 16L24.0588 10.0625C24.3406 9.78118 24.4991 9.39947 24.4994 9.0013C24.4998 8.60314 24.342 8.22115 24.0607 7.93935C23.7794 7.65756 23.3977 7.49905 22.9995 7.4987C22.6013 7.49835 22.2193 7.65618 21.9375 7.93748L16 13.875L10.0625 7.93748C9.78075 7.65569 9.39855 7.49738 9.00004 7.49738C8.60152 7.49738 8.21933 7.65569 7.93754 7.93748C7.65575 8.21927 7.49744 8.60146 7.49744 8.99998C7.49744 9.39849 7.65575 9.78069 7.93754 10.0625L13.875 16L7.93754 21.9375C7.65575 22.2193 7.49744 22.6015 7.49744 23C7.49744 23.3985 7.65575 23.7807 7.93754 24.0625C8.21933 24.3443 8.60152 24.5026 9.00004 24.5026C9.39855 24.5026 9.78075 24.3443 10.0625 24.0625L16 18.125L21.9375 24.0625C22.2193 24.3443 22.6015 24.5026 23 24.5026C23.3986 24.5026 23.7807 24.3443 24.0625 24.0625C24.3443 23.7807 24.5026 23.3985 24.5026 23C24.5026 22.6015 24.3443 22.2193 24.0625 21.9375L18.1213 16Z" fill="white"/>
</svg>
