<svg width="26" height="26" viewBox="0 0 26 26" fill="none" xmlns="http://www.w3.org/2000/svg">
<path d="M12.665 21.3299C11.4808 21.3299 10.3616 21.1023 9.30731 20.6471C8.25307 20.1919 7.33227 19.5709 6.54491 18.7841C5.75813 17.9973 5.13714 17.0768 4.68194 16.0226C4.22674 14.9683 3.99942 13.8491 4 12.6649C4 11.4662 4.2276 10.3432 4.6828 9.29593C5.138 8.24862 5.759 7.33186 6.54578 6.54565C7.33256 5.7583 8.25278 5.1373 9.30645 4.68268C10.3601 4.22806 11.4796 4.00046 12.665 3.99988C13.8637 3.99988 14.9866 4.22748 16.034 4.68268C17.0813 5.13788 17.998 5.75887 18.7842 6.54565C19.5716 7.33244 20.1926 8.24948 20.6472 9.29679C21.1018 10.3441 21.3294 11.4668 21.33 12.6649V13.9213C21.33 14.7734 21.0377 15.4992 20.4531 16.0988C19.8685 16.6984 19.1499 16.998 18.2972 16.9974C17.7774 16.9974 17.2936 16.8818 16.8459 16.6508C16.3982 16.4197 16.0299 16.1164 15.7411 15.741C15.3511 16.1309 14.8925 16.4379 14.3651 16.662C13.8377 16.8862 13.271 16.998 12.665 16.9974C11.4663 16.9974 10.4444 16.5748 9.59932 15.7297C8.7542 14.8846 8.33192 13.863 8.3325 12.6649C8.3325 11.4662 8.75506 10.4443 9.60019 9.5992C10.4453 8.75407 11.4669 8.3318 12.665 8.33238C13.8637 8.33238 14.8856 8.75494 15.7307 9.60007C16.5758 10.4452 16.9981 11.4668 16.9975 12.6649V13.9213C16.9975 14.3401 17.1275 14.6685 17.3874 14.9065C17.6474 15.1445 17.9507 15.2638 18.2972 15.2644C18.6439 15.2644 18.9471 15.1451 19.2071 14.9065C19.467 14.6679 19.597 14.3395 19.597 13.9213V12.6649C19.597 10.773 18.9145 9.14458 17.5495 7.77955C16.1844 6.41452 14.5563 5.7323 12.665 5.73288C10.7731 5.73288 9.1447 6.41539 7.77967 7.78042C6.41465 9.14544 5.73242 10.7736 5.733 12.6649C5.733 14.5567 6.41551 16.1852 7.78054 17.5502C9.14557 18.9152 10.7737 19.5975 12.665 19.5969H16.9975V21.3299H12.665ZM12.665 15.2644C13.3871 15.2644 14.0009 15.0116 14.5063 14.5062C15.0118 14.0007 15.2645 13.387 15.2645 12.6649C15.2645 11.9428 15.0118 11.329 14.5063 10.8236C14.0009 10.3181 13.3871 10.0654 12.665 10.0654C11.9429 10.0654 11.3291 10.3181 10.8237 10.8236C10.3182 11.329 10.0655 11.9428 10.0655 12.6649C10.0655 13.387 10.3182 14.0007 10.8237 14.5062C11.3291 15.0116 11.9429 15.2644 12.665 15.2644Z" fill="#D9D9D9"/>
</svg>
