<svg width="26" height="26" viewBox="0 0 26 26" fill="none" xmlns="http://www.w3.org/2000/svg">
<path d="M12.665 21.33C11.4808 21.33 10.3616 21.1024 9.30731 20.6472C8.25307 20.192 7.33227 19.571 6.54491 18.7842C5.75813 17.9974 5.13714 17.0769 4.68194 16.0227C4.22674 14.9684 3.99942 13.8492 4 12.665C4 11.4663 4.2276 10.3434 4.6828 9.29605C5.138 8.24874 5.759 7.33198 6.54578 6.54578C7.33256 5.75842 8.25278 5.13743 9.30645 4.6828C10.3601 4.22818 11.4796 4.00058 12.665 4C13.8637 4 14.9866 4.2276 16.034 4.6828C17.0813 5.138 17.998 5.75899 18.7842 6.54578C19.5716 7.33256 20.1926 8.2496 20.6472 9.29691C21.1018 10.3442 21.3294 11.4669 21.33 12.665V13.9214C21.33 14.7735 21.0377 15.4993 20.4531 16.0989C19.8685 16.6986 19.1499 16.9981 18.2972 16.9975C17.7774 16.9975 17.2936 16.882 16.8459 16.6509C16.3982 16.4198 16.0299 16.1166 15.7411 15.7411C15.3511 16.131 14.8925 16.438 14.3651 16.6622C13.8377 16.8863 13.271 16.9981 12.665 16.9975C11.4663 16.9975 10.4444 16.5749 9.59932 15.7298C8.7542 14.8847 8.33192 13.8631 8.3325 12.665C8.3325 11.4663 8.75506 10.4444 9.60019 9.59932C10.4453 8.7542 11.4669 8.33192 12.665 8.3325C13.8637 8.3325 14.8856 8.75506 15.7307 9.60019C16.5758 10.4453 16.9981 11.4669 16.9975 12.665V13.9214C16.9975 14.3402 17.1275 14.6686 17.3874 14.9066C17.6474 15.1446 17.9507 15.2639 18.2972 15.2645C18.6439 15.2645 18.9471 15.1452 19.2071 14.9066C19.467 14.6681 19.597 14.3397 19.597 13.9214V12.665C19.597 10.7731 18.9145 9.1447 17.5495 7.77967C16.1844 6.41465 14.5563 5.73242 12.665 5.733C10.7731 5.733 9.1447 6.41551 7.77967 7.78054C6.41465 9.14557 5.73242 10.7737 5.733 12.665C5.733 14.5569 6.41551 16.1853 7.78054 17.5503C9.14557 18.9154 10.7737 19.5976 12.665 19.597H16.9975V21.33H12.665ZM12.665 15.2645C13.3871 15.2645 14.0009 15.0118 14.5063 14.5063C15.0118 14.0009 15.2645 13.3871 15.2645 12.665C15.2645 11.9429 15.0118 11.3291 14.5063 10.8237C14.0009 10.3182 13.3871 10.0655 12.665 10.0655C11.9429 10.0655 11.3291 10.3182 10.8237 10.8237C10.3182 11.3291 10.0655 11.9429 10.0655 12.665C10.0655 13.3871 10.3182 14.0009 10.8237 14.5063C11.3291 15.0118 11.9429 15.2645 12.665 15.2645Z" fill="white"/>
</svg>
