<svg width="8" height="41" viewBox="0 0 8 41" fill="none" xmlns="http://www.w3.org/2000/svg">
<path d="M0.0184379 4.05579C-0.0330285 3.54306 0.023541 3.02523 0.184499 2.5357C0.345457 2.04618 0.607229 1.59582 0.952932 1.21368C1.29864 0.831536 1.7206 0.526094 2.1916 0.317049C2.6626 0.108005 3.17219 0 3.6875 0C4.20281 0 4.7124 0.108005 5.1834 0.317049C5.6544 0.526094 6.07637 0.831536 6.42207 1.21368C6.76777 1.59582 7.02954 2.04618 7.1905 2.5357C7.35146 3.02523 7.40803 3.54306 7.35656 4.05579L5.92581 27.4714C5.87054 28.0267 5.61086 28.5416 5.19722 28.9161C4.78358 29.2906 4.2455 29.498 3.6875 29.498C3.1295 29.498 2.59142 29.2906 2.17778 28.9161C1.76414 28.5416 1.50446 28.0267 1.44919 27.4714L0.0184379 4.05579ZM0 36.8745C0 35.8966 0.388504 34.9586 1.08004 34.2671C1.77158 33.5755 2.70951 33.187 3.6875 33.187C4.66549 33.187 5.60342 33.5755 6.29496 34.2671C6.9865 34.9586 7.375 35.8966 7.375 36.8745C7.375 37.8525 6.9865 38.7905 6.29496 39.482C5.60342 40.1735 4.66549 40.562 3.6875 40.562C2.70951 40.562 1.77158 40.1735 1.08004 39.482C0.388504 38.7905 0 37.8525 0 36.8745Z" fill="white"/>
</svg>
