<svg width="26" height="26" viewBox="0 0 26 26" fill="none" xmlns="http://www.w3.org/2000/svg">
<path fill-rule="evenodd" clip-rule="evenodd" d="M10.9773 2.13956C11.4714 1.99133 11.9933 1.96067 12.5014 2.05002C13.0095 2.13936 13.4896 2.34624 13.9035 2.65415C14.3174 2.96205 14.6536 3.36245 14.8852 3.82338C15.1169 4.28431 15.2376 4.79301 15.2376 5.30887V21.4411C15.2376 21.957 15.1169 22.4657 14.8852 22.9266C14.6536 23.3876 14.3174 23.788 13.9035 24.0959C13.4896 24.4038 13.0095 24.6106 12.5014 24.7C11.9933 24.7893 11.4714 24.7587 10.9773 24.6104L4.35851 22.6248C3.67688 22.4203 3.07932 22.0016 2.65447 21.4307C2.22962 20.8598 2.00012 20.1671 2 19.4555V7.29451C2.00012 6.58288 2.22962 5.89023 2.65447 5.31933C3.07932 4.74843 3.67688 4.32968 4.35851 4.1252L10.9773 2.13956ZM16.3408 4.54991C16.3408 4.25734 16.457 3.97675 16.6639 3.76987C16.8708 3.563 17.1513 3.44677 17.4439 3.44677H20.7533C21.631 3.44677 22.4728 3.79544 23.0934 4.41608C23.7141 5.03671 24.0627 5.87847 24.0627 6.75618V7.85932C24.0627 8.15189 23.9465 8.43248 23.7396 8.63935C23.5327 8.84623 23.2522 8.96245 22.9596 8.96245C22.667 8.96245 22.3864 8.84623 22.1796 8.63935C21.9727 8.43248 21.8565 8.15189 21.8565 7.85932V6.75618C21.8565 6.46361 21.7402 6.18302 21.5334 5.97615C21.3265 5.76927 21.0459 5.65305 20.7533 5.65305H17.4439C17.1513 5.65305 16.8708 5.53682 16.6639 5.32994C16.457 5.12307 16.3408 4.84248 16.3408 4.54991ZM22.9596 17.7875C23.2522 17.7875 23.5327 17.9038 23.7396 18.1106C23.9465 18.3175 24.0627 18.5981 24.0627 18.8907V19.9938C24.0627 20.8715 23.7141 21.7133 23.0934 22.3339C22.4728 22.9546 21.631 23.3032 20.7533 23.3032H17.4439C17.1513 23.3032 16.8708 23.187 16.6639 22.9801C16.457 22.7732 16.3408 22.4927 16.3408 22.2001C16.3408 21.9075 16.457 21.6269 16.6639 21.4201C16.8708 21.2132 17.1513 21.097 17.4439 21.097H20.7533C21.0459 21.097 21.3265 20.9807 21.5334 20.7739C21.7402 20.567 21.8565 20.2864 21.8565 19.9938V18.8907C21.8565 18.5981 21.9727 18.3175 22.1796 18.1106C22.3864 17.9038 22.667 17.7875 22.9596 17.7875ZM9.72195 12.2719C9.42939 12.2719 9.1488 12.3881 8.94192 12.595C8.73504 12.8018 8.61882 13.0824 8.61882 13.375C8.61882 13.6676 8.73504 13.9482 8.94192 14.155C9.1488 14.3619 9.42939 14.4781 9.72195 14.4781H9.72306C10.0156 14.4781 10.2962 14.3619 10.5031 14.155C10.71 13.9482 10.8262 13.6676 10.8262 13.375C10.8262 13.0824 10.71 12.8018 10.5031 12.595C10.2962 12.3881 10.0156 12.2719 9.72306 12.2719H9.72195Z" fill="#CB4040"/>
<path d="M17.4441 13.375H22.9598M22.9598 13.375L20.7535 11.1687M22.9598 13.375L20.7535 15.5813" stroke="#CB4040" stroke-width="2.16667" stroke-linecap="round" stroke-linejoin="round"/>
</svg>
