<svg width="26" height="26" viewBox="0 0 26 26" fill="none" xmlns="http://www.w3.org/2000/svg">
<path d="M12.915 24.83C6.33435 24.83 1 19.4957 1 12.915C1 6.33435 6.33435 1 12.915 1C19.4957 1 24.83 6.33435 24.83 12.915C24.83 19.4957 19.4957 24.83 12.915 24.83ZM12.915 22.447C15.443 22.447 17.8675 21.4427 19.6551 19.6551C21.4427 17.8675 22.447 15.443 22.447 12.915C22.447 10.387 21.4427 7.96246 19.6551 6.17486C17.8675 4.38726 15.443 3.383 12.915 3.383C10.387 3.383 7.96246 4.38726 6.17486 6.17486C4.38726 7.96246 3.383 10.387 3.383 12.915C3.383 15.443 4.38726 17.8675 6.17486 19.6551C7.96246 21.4427 10.387 22.447 12.915 22.447ZM8.74475 15.298H15.298C15.456 15.298 15.6075 15.2352 15.7193 15.1235C15.831 15.0118 15.8938 14.8603 15.8938 14.7023C15.8938 14.5442 15.831 14.3927 15.7193 14.281C15.6075 14.1693 15.456 14.1065 15.298 14.1065H10.532C9.74199 14.1065 8.98433 13.7927 8.42571 13.234C7.86708 12.6754 7.55325 11.9178 7.55325 11.1278C7.55325 10.3377 7.86708 9.58008 8.42571 9.02146C8.98433 8.46283 9.74199 8.149 10.532 8.149H11.7235V5.766H14.1065V8.149H17.0853V10.532H10.532C10.374 10.532 10.2225 10.5948 10.1107 10.7065C9.99902 10.8182 9.93625 10.9697 9.93625 11.1278C9.93625 11.2858 9.99902 11.4373 10.1107 11.549C10.2225 11.6607 10.374 11.7235 10.532 11.7235H15.298C16.088 11.7235 16.8457 12.0373 17.4043 12.596C17.9629 13.1546 18.2768 13.9122 18.2768 14.7023C18.2768 15.4923 17.9629 16.2499 17.4043 16.8085C16.8457 17.3672 16.088 17.681 15.298 17.681H14.1065V20.064H11.7235V17.681H8.74475V15.298Z" fill="#353535"/>
</svg>
