<svg width="26" height="26" viewBox="0 0 26 26" fill="none" xmlns="http://www.w3.org/2000/svg">
<g clip-path="url(#clip0_146_1888)">
<path d="M13.3409 3.12251L20.0803 5.6498C20.4474 5.78742 20.7638 6.03381 20.9871 6.35605C21.2104 6.6783 21.33 7.06103 21.33 7.45309V12.6165C21.33 14.2257 20.882 15.8031 20.036 17.172C19.19 18.5409 17.9795 19.6472 16.5402 20.3668L13.311 21.9814C13.1104 22.0817 12.8893 22.134 12.665 22.134C12.4407 22.134 12.2196 22.0817 12.019 21.9814L8.78982 20.3668C7.3505 19.6472 6.14003 18.5409 5.29404 17.172C4.44805 15.8031 3.99997 14.2257 4 12.6165V7.45309C3.99995 7.06103 4.11958 6.6783 4.3429 6.35605C4.56621 6.03381 4.88257 5.78742 5.24969 5.6498L11.9891 3.12251C12.4249 2.95916 12.9051 2.95916 13.3409 3.12251ZM12.665 4.9258L5.92556 7.45309V12.6165C5.92578 13.8679 6.27446 15.0946 6.93254 16.1591C7.59062 17.2236 8.5321 18.0839 9.65151 18.6435L12.665 20.1521L15.6785 18.6454C16.7982 18.0856 17.7399 17.2251 18.398 16.1602C19.0561 15.0954 19.4046 13.8683 19.4044 12.6165V7.45309L12.665 4.9258ZM12.665 8.71144C13.076 8.71127 13.4762 8.8426 13.8072 9.08621C14.1382 9.32983 14.3826 9.67295 14.5046 10.0654C14.6265 10.4579 14.6198 10.879 14.4852 11.2674C14.3507 11.6557 14.0954 11.9908 13.7568 12.2236L13.6278 12.3055V15.4509C13.6275 15.6963 13.5335 15.9323 13.3651 16.1107C13.1966 16.2892 12.9664 16.3966 12.7214 16.4109C12.4765 16.4253 12.2352 16.3456 12.0471 16.1881C11.8589 16.0306 11.7379 15.8072 11.709 15.5635L11.7022 15.4509V12.3055C11.3347 12.0937 11.0473 11.7666 10.8848 11.3748C10.7223 10.983 10.6937 10.5485 10.8034 10.1387C10.9132 9.72901 11.1552 9.36699 11.4918 9.1089C11.8284 8.85081 12.2408 8.71109 12.665 8.71144Z" fill="#D9D9D9"/>
</g>
<defs>
<clipPath id="clip0_146_1888">
<rect width="26" height="26" fill="white"/>
</clipPath>
</defs>
</svg>
