<svg width="26" height="26" viewBox="0 0 26 26" fill="none" xmlns="http://www.w3.org/2000/svg">
<path d="M23.1076 13.986C23.2051 15.6652 22.4359 17.2794 21.0601 18.2652L21.8942 19.8794C22.1434 20.3669 22.1759 20.941 21.9592 21.4502C21.7534 21.9594 21.3309 22.3602 20.8109 22.5335L19.9551 22.8044C19.5987 22.9244 19.214 22.9316 18.8534 22.825C18.4928 22.7184 18.1738 22.5031 17.9401 22.2085L15.6434 19.5002C14.6792 19.3377 13.7692 18.926 13.0001 18.3085C12.4584 18.471 11.9167 18.5577 11.3751 18.5577C10.4217 18.5577 9.4684 18.2652 8.66673 17.7019C8.09256 17.8752 7.50756 17.951 6.91173 17.9402C6.0559 17.951 5.2109 17.7777 4.42006 17.4527C3.65885 17.1131 3.00841 16.5663 2.54295 15.8748C2.07749 15.1833 1.81574 14.3749 1.78756 13.5419C1.7009 12.7619 1.8309 11.971 2.16673 11.256C1.85256 10.4435 1.82006 9.5552 2.0909 8.73187C2.49173 7.7027 3.25006 6.84687 4.19256 6.3052C4.8209 4.47437 6.58673 3.2502 8.5259 3.3802C10.2592 1.7552 12.9134 1.58187 14.8417 2.97937C15.2967 2.8602 15.7734 2.7952 16.2501 2.7952C17.7234 2.7627 19.1209 3.4127 20.0417 4.57187C22.2517 5.14603 23.8334 7.1177 23.9201 9.41437C23.9742 10.6169 23.6492 11.7977 22.9884 12.8052C23.0642 13.1952 23.1076 13.5852 23.1076 13.986ZM17.6909 12.4585C18.3084 12.5344 18.7959 13.0002 18.7959 13.6177C18.7959 13.905 18.6818 14.1806 18.4786 14.3837C18.2754 14.5869 17.9999 14.701 17.7126 14.701H17.0301C16.6834 15.676 16.0767 16.5319 15.2751 17.1819C15.5459 17.2794 15.8276 17.3335 16.1092 17.4094C21.6667 17.3335 21.0167 13.9427 21.0167 13.8885C20.988 13.1444 20.6648 12.4421 20.1183 11.9363C19.5718 11.4304 18.8467 11.1623 18.1026 11.191C17.8152 11.191 17.5397 11.0769 17.3365 10.8737C17.1334 10.6706 17.0192 10.395 17.0192 10.1077C17.0192 9.82038 17.1334 9.54483 17.3365 9.34167C17.5397 9.1385 17.8152 9.02437 18.1026 9.02437C19.4351 9.05687 20.7134 9.5552 21.7101 10.4327C21.7642 10.1185 21.7967 9.79353 21.7967 9.46853C21.7317 8.1252 21.1251 6.9552 18.6876 6.7277C17.3334 3.52103 13.9209 5.2977 13.9209 6.29437C13.8884 6.54353 14.1484 7.07437 14.1917 7.10687C14.479 7.10687 14.7546 7.221 14.9578 7.42417C15.1609 7.62733 15.2751 7.90288 15.2751 8.1902C15.2751 8.78603 14.7876 9.27353 14.1917 9.27353C13.6176 9.25187 13.0759 9.0352 12.6426 8.66687C12.1226 9.0027 11.5267 9.20853 10.9092 9.27353C10.2917 9.3277 9.78256 8.89437 9.75006 8.29853C9.7301 8.15702 9.73928 8.01292 9.77703 7.87508C9.81478 7.73725 9.8803 7.60858 9.96958 7.49698C10.0589 7.38538 10.17 7.29321 10.2962 7.22613C10.4224 7.15904 10.561 7.11846 10.7034 7.10687C10.8767 7.0852 11.7217 6.9552 11.7217 6.2727C11.7217 5.5577 11.9926 4.8752 12.4584 4.33353C11.4617 4.0627 10.3892 4.4202 9.3059 5.73103C7.31256 5.41687 6.50006 5.6877 5.90423 7.8002C4.87506 8.30937 4.3334 8.66687 4.09506 9.7502C5.26506 9.51187 6.46756 9.60937 7.5834 10.021C8.12506 10.2269 8.4284 10.8335 8.22256 11.4185C8.01673 11.9819 7.3884 12.2635 6.82506 12.0577C6.03423 11.711 5.1459 11.6894 4.3334 11.9927C3.98673 12.2852 3.98673 12.8919 3.98673 13.3685C3.98673 14.1702 4.38756 14.9177 5.07006 15.351C5.64423 15.6435 6.2834 15.7952 6.92256 15.7844C6.76006 15.5027 6.61923 15.2102 6.50006 14.9069C6.41478 14.6285 6.44076 14.328 6.57253 14.0684C6.70431 13.8088 6.93162 13.6105 7.20664 13.515C7.48167 13.4196 7.78298 13.4346 8.04721 13.5568C8.31143 13.679 8.51797 13.8989 8.6234 14.1702C9.05673 15.4052 10.1617 16.2502 11.4617 16.391C12.9459 16.3152 14.2676 15.4377 14.9176 14.0835C15.1667 12.5885 16.3692 12.4585 17.6909 12.4585ZM19.8576 20.551L19.1859 19.1427L18.4167 19.316L19.5001 20.6702L19.8576 20.551ZM14.8201 11.2235C14.8295 10.9468 14.7326 10.6769 14.5492 10.4694C14.3659 10.2619 14.11 10.1325 13.8342 10.1077C13.0651 10.0644 12.3176 10.3244 11.7434 10.8335C11.1259 11.4619 10.8009 12.3285 10.8334 13.206C10.8334 13.4934 10.9475 13.7689 11.1507 13.9721C11.3539 14.1752 11.6294 14.2894 11.9167 14.2894C12.5342 14.2894 13.0001 13.8019 13.0001 13.206C13.0001 12.9135 13.0759 12.621 13.2492 12.3827C13.3792 12.2744 13.5417 12.2202 13.7151 12.2202C14.3109 12.2527 14.8201 11.8085 14.8201 11.2235Z" fill="#353535"/>
</svg>
