<svg width="26" height="26" viewBox="0 0 26 26" fill="none" xmlns="http://www.w3.org/2000/svg">
<path d="M10.8895 21.447C11.0086 21.8442 11.1726 22.2564 11.3815 22.6838C11.5905 23.1111 11.8037 23.4932 12.0214 23.83H3.383C2.72768 23.83 2.16648 23.5965 1.69941 23.1294C1.23234 22.6623 0.999208 22.1015 1 21.447V2.383C1 1.72768 1.23354 1.16648 1.7006 0.699412C2.16767 0.232344 2.72847 -0.00079231 3.383 2.02292e-06H17.681C18.3363 2.02292e-06 18.8975 0.233536 19.3646 0.700604C19.8317 1.16767 20.0648 1.72847 20.064 2.383V10.8427C19.7065 10.8029 19.3094 10.7831 18.8725 10.7831C18.4356 10.7831 18.0385 10.8029 17.681 10.8427V2.383H11.7235V10.7235L8.74475 8.93625L5.766 10.7235V2.383H3.383V21.447H10.8895ZM18.8725 25.0215C17.2243 25.0215 15.8191 24.4404 14.657 23.2783C13.4949 22.1162 12.9142 20.7114 12.915 19.064C12.915 17.4158 13.4961 16.0106 14.6582 14.8485C15.8203 13.6864 17.2251 13.1057 18.8725 13.1065C20.5207 13.1065 21.9259 13.6876 23.088 14.8497C24.2501 16.0118 24.8308 17.4166 24.83 19.064C24.83 20.7122 24.2489 22.1174 23.0868 23.2795C21.9247 24.4416 20.5199 25.0223 18.8725 25.0215ZM17.3831 22.0427L22.1491 19.064L17.3831 16.0853V22.0427ZM10.8895 2.383H3.383H17.681H10.532H10.8895Z" fill="#353535"/>
</svg>
