<svg width="26" height="26" viewBox="0 0 26 26" fill="none" xmlns="http://www.w3.org/2000/svg">
<path d="M5.86964 8.64357C5.66438 8.64357 5.46753 8.72511 5.32239 8.87025C5.17725 9.01539 5.09571 9.21224 5.09571 9.4175C5.09571 9.62276 5.17725 9.81961 5.32239 9.96475C5.46753 10.1099 5.66438 10.1914 5.86964 10.1914H16.7046C16.9099 10.1914 17.1068 10.1099 17.2519 9.96475C17.397 9.81961 17.4786 9.62276 17.4786 9.4175C17.4786 9.21224 17.397 9.01539 17.2519 8.87025C17.1068 8.72511 16.9099 8.64357 16.7046 8.64357H5.86964ZM5.86964 11.7393C5.66438 11.7393 5.46753 11.8208 5.32239 11.966C5.17725 12.1111 5.09571 12.308 5.09571 12.5132V15.6089C5.09571 15.8142 5.17725 16.011 5.32239 16.1562C5.46753 16.3013 5.66438 16.3829 5.86964 16.3829H8.96536C9.17062 16.3829 9.36747 16.3013 9.51261 16.1562C9.65775 16.011 9.73929 15.8142 9.73929 15.6089V12.5132C9.73929 12.308 9.65775 12.1111 9.51261 11.966C9.36747 11.8208 9.17062 11.7393 8.96536 11.7393H5.86964ZM6.64357 14.835V13.2871H8.19143V14.835H6.64357ZM12.0611 11.7393C11.8558 11.7393 11.659 11.8208 11.5138 11.966C11.3687 12.1111 11.2871 12.308 11.2871 12.5132C11.2871 12.7185 11.3687 12.9153 11.5138 13.0605C11.659 13.2056 11.8558 13.2871 12.0611 13.2871H16.7046C16.9099 13.2871 17.1068 13.2056 17.2519 13.0605C17.397 12.9153 17.4786 12.7185 17.4786 12.5132C17.4786 12.308 17.397 12.1111 17.2519 11.966C17.1068 11.8208 16.9099 11.7393 16.7046 11.7393H12.0611ZM12.0611 14.835C11.8558 14.835 11.659 14.9165 11.5138 15.0617C11.3687 15.2068 11.2871 15.4037 11.2871 15.6089C11.2871 15.8142 11.3687 16.011 11.5138 16.1562C11.659 16.3013 11.8558 16.3829 12.0611 16.3829H16.7046C16.9099 16.3829 17.1068 16.3013 17.2519 16.1562C17.397 16.011 17.4786 15.8142 17.4786 15.6089C17.4786 15.4037 17.397 15.2068 17.2519 15.0617C17.1068 14.9165 16.9099 14.835 16.7046 14.835H12.0611ZM2 7.09571C2 6.27468 2.32615 5.48727 2.90671 4.90671C3.48727 4.32615 4.27468 4 5.09571 4H17.4786C18.2996 4 19.087 4.32615 19.6676 4.90671C20.2481 5.48727 20.5743 6.27468 20.5743 7.09571C21.3953 7.09571 22.1827 7.42187 22.7633 8.00243C23.3438 8.58299 23.67 9.37039 23.67 10.1914V17.1568C23.67 18.1831 23.2623 19.1673 22.5366 19.893C21.8109 20.6187 20.8267 21.0264 19.8004 21.0264H5.86964C4.84335 21.0264 3.85909 20.6187 3.13339 19.893C2.40769 19.1673 2 18.1831 2 17.1568V7.09571ZM19.8004 17.1568C19.5951 17.1568 19.3982 17.0752 19.2531 16.9301C19.108 16.785 19.0264 16.5881 19.0264 16.3829V7.09571C19.0264 6.6852 18.8634 6.29149 18.5731 6.00121C18.2828 5.71093 17.8891 5.54786 17.4786 5.54786H5.09571C4.6852 5.54786 4.29149 5.71093 4.00121 6.00121C3.71093 6.29149 3.54786 6.6852 3.54786 7.09571V17.1568C3.54786 17.7726 3.79247 18.3631 4.22789 18.7985C4.66331 19.234 5.25387 19.4786 5.86964 19.4786H19.8004C20.4161 19.4786 21.0067 19.234 21.4421 18.7985C21.8775 18.3631 22.1221 17.7726 22.1221 17.1568V10.1914C22.1221 9.78091 21.9591 9.38721 21.6688 9.09693C21.3785 8.80665 20.9848 8.64357 20.5743 8.64357V16.3829C20.5743 16.5881 20.4927 16.785 20.3476 16.9301C20.2025 17.0752 20.0056 17.1568 19.8004 17.1568Z" fill="white"/>
</svg>
