<svg width="26" height="26" viewBox="0 0 26 26" fill="none" xmlns="http://www.w3.org/2000/svg">
<path fill-rule="evenodd" clip-rule="evenodd" d="M17.3334 9.74999C17.3334 10.8993 16.8769 12.0015 16.0642 12.8141C15.2516 13.6268 14.1494 14.0833 13.0001 14.0833C11.8508 14.0833 10.7486 13.6268 9.93595 12.8141C9.12329 12.0015 8.66675 10.8993 8.66675 9.74999C8.66675 8.60072 9.12329 7.49852 9.93595 6.68586C10.7486 5.8732 11.8508 5.41666 13.0001 5.41666C14.1494 5.41666 15.2516 5.8732 16.0642 6.68586C16.8769 7.49852 17.3334 8.60072 17.3334 9.74999ZM15.1667 9.74999C15.1667 10.3246 14.9385 10.8757 14.5321 11.2821C14.1258 11.6884 13.5747 11.9167 13.0001 11.9167C12.4254 11.9167 11.8743 11.6884 11.468 11.2821C11.0617 10.8757 10.8334 10.3246 10.8334 9.74999C10.8334 9.17535 11.0617 8.62425 11.468 8.21793C11.8743 7.8116 12.4254 7.58332 13.0001 7.58332C13.5747 7.58332 14.1258 7.8116 14.5321 8.21793C14.9385 8.62425 15.1667 9.17535 15.1667 9.74999Z" fill="#353535"/>
<path fill-rule="evenodd" clip-rule="evenodd" d="M13 1.08333C6.41879 1.08333 1.08337 6.41875 1.08337 13C1.08337 19.5812 6.41879 24.9167 13 24.9167C19.5813 24.9167 24.9167 19.5812 24.9167 13C24.9167 6.41875 19.5813 1.08333 13 1.08333ZM3.25004 13C3.25004 15.2642 4.02246 17.3485 5.31704 19.0038C6.22621 17.8099 7.3991 16.8423 8.74409 16.1767C10.0891 15.511 11.5698 15.1654 13.0705 15.1667C14.5517 15.1653 16.0138 15.502 17.3452 16.1512C18.6767 16.8004 19.8423 17.7449 20.7535 18.9128C21.6921 17.6817 22.3241 16.2448 22.5972 14.721C22.8702 13.1971 22.7765 11.6302 22.3237 10.1497C21.871 8.6693 21.0722 7.31796 19.9935 6.20754C18.9148 5.09711 17.5871 4.25951 16.1205 3.76405C14.6538 3.26858 13.0902 3.1295 11.5591 3.3583C10.0279 3.5871 8.57331 4.17721 7.31554 5.0798C6.05777 5.9824 5.033 7.17152 4.32604 8.54879C3.61908 9.92606 3.25024 11.4519 3.25004 13ZM13 22.75C10.7618 22.7534 8.59116 21.9834 6.85537 20.5703C7.55405 19.5701 8.48399 18.7535 9.56608 18.1899C10.6482 17.6263 11.8504 17.3325 13.0705 17.3333C14.2753 17.3324 15.463 17.6189 16.5349 18.169C17.6068 18.7192 18.5319 19.5172 19.2335 20.4967C17.4843 21.9556 15.2778 22.7532 13 22.75Z" fill="#353535"/>
</svg>
