<svg width="18" height="18" viewBox="0 0 18 18" fill="none" xmlns="http://www.w3.org/2000/svg">
<path d="M17.625 10.125L15.3105 12.4395L14.25 13.5L10.875 10.125L11.9355 9.0645L13.5 10.629V9C13.5 6.519 11.481 4.5 9 4.5V3C10.5913 3 12.1174 3.63214 13.2426 4.75736C14.3679 5.88258 15 7.4087 15 9V10.629L16.5645 9.0645L17.625 10.125ZM4.5 9V7.371L6.0645 8.9355L7.125 7.875L3.75 4.5L2.6895 5.5605L0.375 7.875L1.4355 8.9355L3 7.371V9C3 10.5913 3.63214 12.1174 4.75736 13.2426C5.88258 14.3679 7.4087 15 9 15V13.5C6.519 13.5 4.5 11.481 4.5 9Z" fill="#607B96"/>
</svg>
