<svg width="28" height="28" viewBox="0 0 28 28" fill="none" xmlns="http://www.w3.org/2000/svg">
<g id="logos:telegram" clip-path="url(#clip0_447_393)">
<path id="Vector" d="M14 0C10.2878 0 6.72437 1.47591 4.10156 4.10047C1.47604 6.72607 0.000727278 10.2869 0 14C0 17.7115 1.47656 21.275 4.10156 23.8995C6.72437 26.5241 10.2878 28 14 28C17.7122 28 21.2756 26.5241 23.8984 23.8995C26.5234 21.275 28 17.7115 28 14C28 10.2885 26.5234 6.72503 23.8984 4.10047C21.2756 1.47591 17.7122 0 14 0Z" fill="url(#paint0_linear_447_393)"/>
<path id="Vector_2" d="M6.33717 13.8521C10.419 12.0741 13.1403 10.9018 14.5009 10.3354C18.3903 8.71821 19.1975 8.43733 19.7247 8.42782C19.8406 8.42596 20.0987 8.45461 20.2672 8.59079C20.4072 8.70563 20.4465 8.86094 20.4662 8.96999C20.4837 9.07893 20.5078 9.32721 20.4881 9.52102C20.2781 11.7348 19.3659 17.1068 18.9022 19.5864C18.7075 20.6355 18.3203 20.9872 17.9462 21.0216C17.1325 21.0964 16.5156 20.4843 15.7281 19.9683C14.4965 19.1605 13.8009 18.6578 12.6044 17.8696C11.2219 16.9587 12.1187 16.458 12.9062 15.6399C13.1119 15.4257 16.695 12.1675 16.7628 11.8719C16.7715 11.835 16.7803 11.6971 16.6972 11.6245C16.6162 11.5517 16.4959 11.5766 16.4084 11.5963C16.2837 11.6243 14.3172 12.9254 10.5022 15.4995C9.94436 15.8831 9.43905 16.0702 8.98405 16.0603C8.4853 16.0496 7.5228 15.7777 6.80748 15.5454C5.93248 15.2604 5.23467 15.1096 5.29592 14.6256C5.32655 14.3736 5.67436 14.1156 6.33717 13.8521Z" fill="white"/>
</g>
<defs>
<linearGradient id="paint0_linear_447_393" x1="1400" y1="0" x2="1400" y2="2800" gradientUnits="userSpaceOnUse">
<stop stop-color="#2AABEE"/>
<stop offset="1" stop-color="#229ED9"/>
</linearGradient>
<clipPath id="clip0_447_393">
<rect width="28" height="28" fill="white"/>
</clipPath>
</defs>
</svg>
