<svg width="32" height="32" viewBox="0 0 32 32" fill="none" xmlns="http://www.w3.org/2000/svg">
<path d="M28.6758 5.47422C28.3413 5.19858 27.9376 5.01795 27.5077 4.95155C27.0778 4.88515 26.6377 4.93547 26.2344 5.09715L5.17911 13.5171C4.72896 13.7007 4.34577 14.0154 4.0804 14.4197C3.81503 14.8239 3.68002 15.2985 3.69327 15.7806C3.70653 16.2626 3.86743 16.7292 4.15462 17.1185C4.44181 17.5079 4.84173 17.8015 5.3013 17.9605L9.56029 19.428L11.9336 27.2044C11.9661 27.3082 12.0132 27.4069 12.0734 27.4977C12.0828 27.5117 12.0957 27.521 12.1051 27.5361C12.1744 27.6316 12.258 27.716 12.353 27.7863C12.3796 27.8069 12.407 27.8263 12.4353 27.8445C12.5465 27.9177 12.6698 27.9712 12.7995 28.0028L12.8148 28.004L12.8218 28.0075C12.9003 28.0231 12.9802 28.0309 13.0603 28.0307L13.0815 28.0272C13.2018 28.0253 13.3211 28.0048 13.4351 27.9667C13.4621 27.9574 13.4844 27.9434 13.5103 27.9318C13.5956 27.8972 13.6764 27.8526 13.7511 27.7991C13.8107 27.7491 13.8702 27.699 13.9297 27.649L17.1043 24.1774L21.8391 27.8108C22.2559 28.1323 22.7689 28.3072 23.2972 28.3077C23.8508 28.3071 24.3874 28.1179 24.817 27.7719C25.2465 27.4258 25.5429 26.944 25.6564 26.4072L29.49 7.76687C29.5767 7.34751 29.5468 6.91269 29.4034 6.50888C29.26 6.10507 29.0085 5.74744 28.6758 5.47422ZM13.5256 19.7981C13.3629 19.959 13.2517 20.1638 13.206 20.387L12.8418 22.1373L11.9207 19.1196L16.6966 16.6559L13.5256 19.7981ZM23.2795 25.9708L17.6835 21.6765C17.4494 21.4975 17.1557 21.4125 16.8611 21.4383C16.5665 21.4642 16.2926 21.5991 16.0939 21.8161L15.0764 22.9275L15.4359 21.197L23.7577 12.9539C23.9552 12.7571 24.0752 12.4969 24.096 12.2202C24.1169 11.9436 24.0373 11.6686 23.8716 11.4449C23.7059 11.2213 23.465 11.0636 23.1923 11.0003C22.9196 10.9371 22.633 10.9724 22.3843 11.1L10.4415 17.2587L6.06498 15.6725L27.1884 7.30369L23.2795 25.9708Z" fill="#DDDDDD"/>
</svg>
