<svg width="26" height="26" viewBox="0 0 26 26" fill="none" xmlns="http://www.w3.org/2000/svg">
<path d="M8.36329 17.8273L10.271 17.277L21.7576 5.65284C21.8482 5.55999 21.8987 5.43523 21.8981 5.30551C21.8975 5.17578 21.8458 5.0515 21.7544 4.95951L21.0665 4.26401C21.022 4.21833 20.9689 4.18197 20.9102 4.15704C20.8516 4.13211 20.7885 4.11911 20.7248 4.11881C20.6611 4.11851 20.5979 4.1309 20.539 4.15527C20.4801 4.17965 20.4267 4.2155 20.3818 4.26076L8.92554 15.8546L8.36221 17.8263L8.36329 17.8273ZM22.4282 2.88601L23.1161 3.58259C24.0651 4.54351 24.0738 6.09376 23.1335 7.04492L11.297 19.0244L7.21929 20.1988C6.97034 20.2684 6.70391 20.2365 6.47847 20.11C6.25303 19.9834 6.08699 19.7726 6.01679 19.5238C5.96456 19.345 5.96381 19.155 6.01463 18.9757L7.20088 14.8157L19.006 2.86759C19.2304 2.64156 19.4977 2.46249 19.7921 2.34082C20.0865 2.21915 20.4022 2.15732 20.7207 2.15894C21.0393 2.16055 21.3543 2.22557 21.6475 2.35022C21.9406 2.47486 22.206 2.65772 22.4282 2.88601ZM9.94929 4.13509C10.4866 4.13509 10.9221 4.57601 10.9221 5.11984C10.923 5.2484 10.8985 5.37586 10.8501 5.49495C10.8016 5.61403 10.7302 5.7224 10.6398 5.81386C10.5495 5.90532 10.442 5.97807 10.3235 6.02795C10.205 6.07784 10.0779 6.10388 9.94929 6.10459H6.05796C4.98329 6.10459 4.11229 6.98642 4.11229 8.07301V19.8878C4.11229 20.9755 4.98329 21.8573 6.05796 21.8573H17.732C18.8066 21.8573 19.6787 20.9755 19.6787 19.8878V15.9499C19.6787 15.4061 20.1142 14.9652 20.6515 14.9652C21.1889 14.9652 21.6244 15.4061 21.6244 15.951V19.8878C21.6244 22.0632 19.8813 23.8268 17.732 23.8268H6.05796C3.90863 23.8268 2.16663 22.0632 2.16663 19.8878V8.07301C2.16663 5.89876 3.90863 4.13509 6.05796 4.13509H9.94929Z" fill="#353535"/>
</svg>
