<svg width="26" height="26" viewBox="0 0 26 26" fill="none" xmlns="http://www.w3.org/2000/svg">
<path d="M22.9204 4.63833H18.3725V3.72875C18.3725 3.00504 18.085 2.31097 17.5733 1.79923C17.0615 1.28749 16.3675 1 15.6438 1H10.1862C9.46254 1 8.76847 1.28749 8.25673 1.79923C7.74499 2.31097 7.4575 3.00504 7.4575 3.72875V4.63833H2.90958C2.66835 4.63833 2.43699 4.73416 2.26641 4.90474C2.09583 5.07532 2 5.30668 2 5.54792C2 5.78915 2.09583 6.02051 2.26641 6.19109C2.43699 6.36167 2.66835 6.4575 2.90958 6.4575H3.81917V22.83C3.81917 23.3125 4.01083 23.7752 4.35199 24.1163C4.69315 24.4575 5.15586 24.6492 5.63833 24.6492H20.1917C20.6741 24.6492 21.1369 24.4575 21.478 24.1163C21.8192 23.7752 22.0108 23.3125 22.0108 22.83V6.4575H22.9204C23.1617 6.4575 23.393 6.36167 23.5636 6.19109C23.7342 6.02051 23.83 5.78915 23.83 5.54792C23.83 5.30668 23.7342 5.07532 23.5636 4.90474C23.393 4.73416 23.1617 4.63833 22.9204 4.63833ZM9.27667 3.72875C9.27667 3.48751 9.3725 3.25616 9.54308 3.08558C9.71366 2.915 9.94501 2.81917 10.1862 2.81917H15.6438C15.885 2.81917 16.1163 2.915 16.2869 3.08558C16.4575 3.25616 16.5533 3.48751 16.5533 3.72875V4.63833H9.27667V3.72875ZM20.1917 22.83H5.63833V6.4575H20.1917V22.83ZM11.0958 11.0054V18.2821C11.0958 18.5233 11 18.7547 10.8294 18.9253C10.6588 19.0958 10.4275 19.1917 10.1862 19.1917C9.94501 19.1917 9.71366 19.0958 9.54308 18.9253C9.3725 18.7547 9.27667 18.5233 9.27667 18.2821V11.0054C9.27667 10.7642 9.3725 10.5328 9.54308 10.3622C9.71366 10.1917 9.94501 10.0958 10.1862 10.0958C10.4275 10.0958 10.6588 10.1917 10.8294 10.3622C11 10.5328 11.0958 10.7642 11.0958 11.0054ZM16.5533 11.0054V18.2821C16.5533 18.5233 16.4575 18.7547 16.2869 18.9253C16.1163 19.0958 15.885 19.1917 15.6438 19.1917C15.4025 19.1917 15.1712 19.0958 15.0006 18.9253C14.83 18.7547 14.7342 18.5233 14.7342 18.2821V11.0054C14.7342 10.7642 14.83 10.5328 15.0006 10.3622C15.1712 10.1917 15.4025 10.0958 15.6438 10.0958C15.885 10.0958 16.1163 10.1917 16.2869 10.3622C16.4575 10.5328 16.5533 10.7642 16.5533 11.0054Z" fill="#CB4040"/>
</svg>
