<svg width="26" height="26" viewBox="0 0 26 26" fill="none" xmlns="http://www.w3.org/2000/svg">
<path d="M13.0002 4.33337C14.1494 4.33337 15.2516 4.78992 16.0643 5.60258C16.877 6.41524 17.3335 7.51744 17.3335 8.66671C17.3335 9.81598 16.877 10.9182 16.0643 11.7308C15.2516 12.5435 14.1494 13 13.0002 13C11.8509 13 10.7487 12.5435 9.93603 11.7308C9.12338 10.9182 8.66683 9.81598 8.66683 8.66671C8.66683 7.51744 9.12338 6.41524 9.93603 5.60258C10.7487 4.78992 11.8509 4.33337 13.0002 4.33337ZM13.0002 15.1667C17.7885 15.1667 21.6668 17.1059 21.6668 19.5V21.6667H4.3335V19.5C4.3335 17.1059 8.21183 15.1667 13.0002 15.1667Z" fill="#D9D9D9"/>
</svg>
