<svg width="32" height="32" viewBox="0 0 32 32" fill="none" xmlns="http://www.w3.org/2000/svg">
<g clip-path="url(#clip0_146_1927)">
<path fill-rule="evenodd" clip-rule="evenodd" d="M31.7556 22.1239C31.0385 20.6797 30.0935 19.3604 28.9569 18.2166C28.5768 17.787 28.1788 17.3736 27.7639 16.9774L27.7138 16.9286C27.5598 16.779 27.4077 16.6274 27.2577 16.4738C28.8114 14.3133 30.1409 12.0001 31.2257 9.57L31.2692 9.47245L31.2995 9.36962C31.4432 8.89109 31.6067 7.98148 31.0266 7.15887C30.4255 6.3099 29.4645 6.15698 28.8198 6.15698H25.8577C25.2374 6.12872 24.6241 6.29738 24.1056 6.63882C23.587 6.98027 23.1898 7.477 22.9706 8.05794C22.3331 9.57612 21.535 11.0217 20.5898 12.37V8.899C20.5898 8.45078 20.5477 7.69937 20.0665 7.06659C19.4917 6.30727 18.6599 6.15698 18.0825 6.15698H13.3815C12.7681 6.14287 12.1727 6.36522 11.7187 6.77799C11.2647 7.19076 10.9869 7.76233 10.9427 8.37432L10.9387 8.43365V8.49297C10.9387 9.13233 11.1918 9.60427 11.3949 9.90089C11.4858 10.034 11.5821 10.1553 11.644 10.2318L11.6572 10.2489C11.7231 10.3306 11.7666 10.3847 11.8101 10.4453C11.9261 10.6009 12.0909 10.8435 12.1384 11.4683V13.4101C11.1947 11.8299 10.421 10.1543 9.83007 8.41123L9.81952 8.38223L9.80898 8.35455C9.64815 7.93402 9.39108 7.32234 8.87564 6.85567C8.27451 6.30858 7.56264 6.15698 6.91536 6.15698H3.90969C3.25451 6.15698 2.46486 6.3099 1.87559 6.93081C1.29687 7.54249 1.23096 8.27545 1.23096 8.66303V8.83967L1.26787 9.01105C2.1001 12.8746 3.81509 16.4932 6.27864 19.5836C7.40494 21.3597 8.93402 22.8454 10.7419 23.9201C12.5497 24.9947 14.5854 25.6282 16.6838 25.769L16.7378 25.7729H16.7932C17.7503 25.7729 18.7482 25.6899 19.4983 25.1903C20.5094 24.5153 20.5898 23.4804 20.5898 22.9637V21.4635C20.8495 21.6744 21.1712 21.9565 21.5654 22.3362C22.0426 22.8134 22.4222 23.2273 22.7479 23.5885L22.9219 23.781C23.175 24.0631 23.4241 24.3413 23.6509 24.5693C23.9356 24.8554 24.2876 25.1705 24.7279 25.4038C25.2064 25.6556 25.7087 25.7703 26.2413 25.7703H29.2483C29.8824 25.7703 30.7907 25.62 31.43 24.8791C32.1261 24.0724 32.0733 23.0823 31.8545 22.3718L31.815 22.2439L31.7556 22.1239ZM24.2151 22.2637C23.8065 21.807 23.3859 21.3612 22.9535 20.9269L22.9496 20.923C21.1607 19.1987 20.3262 18.8994 19.7356 18.8994C19.4205 18.8994 19.0738 18.9337 18.8484 19.2158C18.7469 19.3504 18.6803 19.508 18.6546 19.6746C18.6228 19.868 18.6087 20.0639 18.6124 20.2599V22.9637C18.6124 23.2998 18.5571 23.4409 18.4015 23.5437C18.1945 23.6821 17.7529 23.7942 16.8051 23.7942C15.0046 23.6717 13.2589 23.1236 11.7115 22.195C10.1641 21.2664 8.85919 19.9837 7.90407 18.4525L7.89352 18.4354L7.88034 18.4196C5.58538 15.5631 3.98595 12.2121 3.20837 8.63139C3.21364 8.46001 3.25056 8.35587 3.3112 8.29259C3.37316 8.22668 3.52476 8.1344 3.90969 8.1344H6.91536C7.24889 8.1344 7.4229 8.20822 7.54813 8.32027C7.68787 8.44946 7.81179 8.66698 7.95944 9.05455C8.69767 11.2244 9.69429 13.2546 10.6395 14.7456C11.1114 15.4917 11.5755 16.1126 11.9947 16.5516C12.2043 16.7704 12.4086 16.9523 12.605 17.0815C12.7936 17.2055 13.0084 17.3043 13.2299 17.3043C13.3459 17.3043 13.4817 17.2911 13.6122 17.2345C13.7531 17.1722 13.8692 17.0645 13.9418 16.9286C14.0776 16.6808 14.1158 16.3156 14.1158 15.8371V11.3905C14.0459 10.3122 13.7203 9.70446 13.4039 9.27339C13.3398 9.18716 13.2739 9.10234 13.2062 9.01896L13.189 8.99787C13.1328 8.92959 13.0792 8.85923 13.0282 8.78694C12.9633 8.70633 12.9243 8.608 12.9162 8.50483C12.9265 8.40008 12.9765 8.30324 13.0559 8.23413C13.1353 8.16502 13.2381 8.12887 13.3433 8.13308H18.0825C18.354 8.13308 18.445 8.19899 18.4911 8.26095C18.5571 8.34664 18.6124 8.52461 18.6124 8.899V14.8682C18.6124 15.5774 18.9394 16.0572 19.4139 16.0572C19.9597 16.0572 20.3539 15.7263 21.042 15.0382L21.0539 15.025L21.0644 15.0132C22.6081 13.131 23.8693 11.034 24.8083 8.78826L24.8136 8.77244C24.8842 8.57402 25.0177 8.40413 25.1938 8.28869C25.37 8.17325 25.579 8.1186 25.7891 8.13308H28.8212C29.2325 8.13308 29.3669 8.23854 29.4117 8.3005C29.4579 8.36641 29.4908 8.50747 29.4117 8.78431C28.3289 11.2051 26.9903 13.5032 25.4187 15.6393L25.4081 15.6552C25.2565 15.8885 25.0891 16.1469 25.0654 16.4422C25.039 16.7612 25.1761 17.0499 25.4174 17.361C25.5927 17.6194 25.9552 17.974 26.323 18.3339L26.3573 18.3682C26.7422 18.7452 27.1601 19.1539 27.495 19.5493L27.5042 19.5586L27.5134 19.5691C28.5119 20.5651 29.3422 21.7164 29.972 22.9782C30.0722 23.3209 30.0116 23.4976 29.9325 23.5885C29.8415 23.694 29.6372 23.7929 29.2496 23.7929H26.2413C26.0363 23.7979 25.8334 23.7502 25.652 23.6545C25.4298 23.5252 25.228 23.3634 25.0535 23.1746C24.865 22.9861 24.6607 22.758 24.4102 22.4799L24.2164 22.2637H24.2151Z" fill="#DDDDDD"/>
</g>
<defs>
<clipPath id="clip0_146_1927">
<rect width="32" height="32" fill="white"/>
</clipPath>
</defs>
</svg>
