<svg width="32" height="32" viewBox="0 0 32 32" fill="none" xmlns="http://www.w3.org/2000/svg">
<path d="M10.62 8.26929C10.3722 8.23322 10.1196 8.2831 9.90404 8.41063H9.88538C9.38538 8.70396 8.93471 9.07329 8.55071 9.50796C8.23071 9.87729 8.05738 10.2506 8.01204 10.6106C7.98538 10.824 8.00404 11.04 8.06671 11.244L8.09071 11.2573C8.45071 12.3146 8.92004 13.332 9.49338 14.2893C10.2326 15.6339 11.1424 16.8776 12.2 17.9893L12.232 18.0346L12.2827 18.072L12.3134 18.108L12.3507 18.14C13.4663 19.2008 14.7129 20.1149 16.06 20.86C17.6 21.6986 18.5347 22.0946 19.096 22.26V22.268C19.26 22.3186 19.4094 22.3413 19.56 22.3413C20.0381 22.306 20.4906 22.1116 20.8454 21.7893C21.2787 21.4053 21.6454 20.9533 21.9307 20.4506V20.4413C22.1987 19.9346 22.108 19.4573 21.7214 19.1333C20.9447 18.4547 20.1049 17.8519 19.2134 17.3333C18.616 17.0093 18.0094 17.2053 17.764 17.5333L17.24 18.1946C16.9707 18.5226 16.4827 18.4773 16.4827 18.4773L16.4694 18.4853C12.828 17.556 11.856 13.8693 11.856 13.8693C11.856 13.8693 11.8107 13.368 12.148 13.112L12.804 12.584C13.1187 12.328 13.3374 11.7226 13 11.1253C12.4849 10.233 11.8833 9.39339 11.204 8.61863C11.0559 8.43629 10.8481 8.3121 10.6174 8.26796L10.62 8.26929ZM16.7734 6.66663C16.5966 6.66663 16.427 6.73686 16.302 6.86189C16.1769 6.98691 16.1067 7.15648 16.1067 7.33329C16.1067 7.5101 16.1769 7.67967 16.302 7.8047C16.427 7.92972 16.5966 7.99996 16.7734 7.99996C18.4587 7.99996 19.8587 8.55063 20.9667 9.60663C21.536 10.184 21.98 10.868 22.2707 11.6173C22.5627 12.368 22.696 13.1693 22.6614 13.972C22.654 14.1488 22.7171 14.3213 22.8368 14.4516C22.9566 14.5818 23.1232 14.6592 23.3 14.6666C23.4769 14.6741 23.6494 14.6109 23.7796 14.4912C23.9099 14.3714 23.9873 14.2048 23.9947 14.028C24.0361 13.0406 23.8722 12.0554 23.5134 11.1346C23.153 10.2095 22.6066 9.36812 21.908 8.66263L21.8947 8.64929C20.52 7.33596 18.7814 6.66663 16.7734 6.66663Z" fill="#DDDDDD"/>
<path d="M16.7267 8.85863C16.5499 8.85863 16.3803 8.92887 16.2553 9.0539C16.1303 9.17892 16.0601 9.34849 16.0601 9.5253C16.0601 9.70211 16.1303 9.87168 16.2553 9.9967C16.3803 10.1217 16.5499 10.192 16.7267 10.192H16.7494C17.9654 10.2786 18.8507 10.684 19.4707 11.3493C20.1067 12.0346 20.4361 12.8866 20.4107 13.94C20.4067 14.1168 20.473 14.288 20.5951 14.4159C20.7173 14.5438 20.8852 14.6179 21.0621 14.622C21.2389 14.626 21.4101 14.5597 21.538 14.4375C21.6659 14.3154 21.74 14.1474 21.7441 13.9706C21.7761 12.588 21.3307 11.3946 20.4481 10.4426V10.44C19.5454 9.47197 18.3067 8.95997 16.8161 8.85997L16.7934 8.8573L16.7267 8.85863Z" fill="#DDDDDD"/>
<path d="M16.7013 11.0921C16.6121 11.0842 16.5222 11.0944 16.437 11.122C16.3518 11.1496 16.2731 11.1942 16.2055 11.2529C16.1379 11.3117 16.0828 11.3834 16.0435 11.4639C16.0043 11.5444 15.9816 11.632 15.977 11.7215C15.9723 11.8109 15.9857 11.9004 16.0164 11.9845C16.0471 12.0687 16.0944 12.1458 16.1555 12.2112C16.2167 12.2767 16.2904 12.3291 16.3722 12.3655C16.4541 12.4018 16.5425 12.4213 16.632 12.4227C17.1893 12.4521 17.5453 12.6201 17.7693 12.8454C17.9947 13.0721 18.1627 13.4361 18.1933 14.0054C18.195 14.0949 18.2147 14.1831 18.2511 14.2648C18.2876 14.3465 18.3402 14.42 18.4057 14.481C18.4712 14.5419 18.5483 14.5891 18.6324 14.6196C18.7165 14.6502 18.8059 14.6635 18.8952 14.6587C18.9846 14.654 19.0721 14.6313 19.1525 14.592C19.2329 14.5527 19.3046 14.4977 19.3632 14.4301C19.4219 14.3626 19.4664 14.2839 19.494 14.1988C19.5216 14.1137 19.5318 14.0239 19.524 13.9347C19.4813 13.1347 19.2307 12.4281 18.7173 11.9081C18.2013 11.3881 17.4987 11.1347 16.7013 11.0921Z" fill="#DDDDDD"/>
<path fill-rule="evenodd" clip-rule="evenodd" d="M9.42266 3.1787C13.6654 2.23031 18.0652 2.23031 22.308 3.1787L22.76 3.2787C24.0003 3.55597 25.1394 4.17167 26.0507 5.0574C26.9621 5.94313 27.6101 7.06419 27.9227 8.29604C28.9996 12.5399 28.9996 16.9855 27.9227 21.2294C27.6101 22.4612 26.9621 23.5823 26.0507 24.468C25.1394 25.3537 24.0003 25.9694 22.76 26.2467L22.3067 26.3467C19.6494 26.9409 16.9226 27.1648 14.204 27.012L10.6667 30.1774C10.5333 30.2968 10.3703 30.3782 10.1948 30.4131C10.0192 30.4481 9.8375 30.4352 9.66859 30.376C9.49968 30.3167 9.34977 30.2132 9.23451 30.0763C9.11925 29.9393 9.04286 29.7739 9.01332 29.5974L8.42799 26.1014C7.30557 25.7521 6.29147 25.1209 5.48262 24.2679C4.67376 23.4149 4.09719 22.3687 3.80799 21.2294C2.731 16.9855 2.731 12.5399 3.80799 8.29604C4.12055 7.06419 4.76852 5.94313 5.6799 5.0574C6.59129 4.17167 7.73039 3.55597 8.97066 3.2787L9.42266 3.1787ZM21.872 5.12937C17.9164 4.24511 13.8143 4.24511 9.85866 5.12937L9.40532 5.2307C8.52628 5.42758 7.71901 5.86424 7.07316 6.49221C6.4273 7.12018 5.96814 7.91487 5.74666 8.78804C4.75161 12.709 4.75161 16.8164 5.74666 20.7374C5.96824 21.6107 6.42761 22.4055 7.07371 23.0335C7.71982 23.6615 8.52737 24.098 9.40666 24.2947L9.52666 24.3214C9.72078 24.3648 9.89755 24.4651 10.0344 24.6095C10.1712 24.7539 10.2618 24.9359 10.2947 25.132L10.6867 27.476L13.1827 25.2427C13.2823 25.1533 13.399 25.0847 13.5256 25.0412C13.6523 24.9977 13.7864 24.9801 13.92 24.9894C16.5854 25.1785 19.2642 24.9786 21.872 24.396L22.324 24.2947C23.2033 24.098 24.0108 23.6615 24.6569 23.0335C25.303 22.4055 25.7624 21.6107 25.984 20.7374C26.9787 16.8174 26.9787 12.7094 25.984 8.78804C25.7624 7.9147 25.303 7.11989 24.6569 6.49191C24.0108 5.86393 23.2033 5.42736 22.324 5.2307L21.872 5.12937Z" fill="#DDDDDD"/>
</svg>
