<svg width="48" height="48" viewBox="0 0 48 48" fill="none" xmlns="http://www.w3.org/2000/svg">
<g clip-path="url(#clip0_15_76)">
<path d="M24 45.3334C20.4638 45.3334 17.0724 43.9286 14.5719 41.4281C12.0714 38.9276 10.6667 35.5362 10.6667 32V16C10.6667 12.4638 12.0714 9.07242 14.5719 6.57193C17.0724 4.07144 20.4638 2.66669 24 2.66669C27.5362 2.66669 30.9276 4.07144 33.4281 6.57193C35.9286 9.07242 37.3333 12.4638 37.3333 16V32C37.3333 33.751 36.9884 35.4848 36.3184 37.1025C35.6483 38.7201 34.6662 40.19 33.4281 41.4281C32.19 42.6662 30.7201 43.6484 29.1024 44.3184C27.4848 44.9885 25.7509 45.3334 24 45.3334ZM24 5.33335C21.171 5.33335 18.4579 6.45716 16.4575 8.45755C14.4571 10.4579 13.3333 13.171 13.3333 16V32C13.3333 34.829 14.4571 37.5421 16.4575 39.5425C18.4579 41.5429 21.171 42.6667 24 42.6667C26.829 42.6667 29.5421 41.5429 31.5425 39.5425C33.5429 37.5421 34.6667 34.829 34.6667 32V16C34.6667 13.171 33.5429 10.4579 31.5425 8.45755C29.5421 6.45716 26.829 5.33335 24 5.33335Z" fill="#353535"/>
<path d="M24 20C23.6464 20 23.3072 19.8595 23.0572 19.6095C22.8071 19.3594 22.6667 19.0203 22.6667 18.6667V13.3333C22.6667 12.9797 22.8071 12.6406 23.0572 12.3905C23.3072 12.1405 23.6464 12 24 12C24.3536 12 24.6928 12.1405 24.9428 12.3905C25.1928 12.6406 25.3333 12.9797 25.3333 13.3333V18.6667C25.3333 19.0203 25.1928 19.3594 24.9428 19.6095C24.6928 19.8595 24.3536 20 24 20Z" fill="#353535"/>
</g>
<defs>
<clipPath id="clip0_15_76">
<rect width="48" height="48" fill="white"/>
</clipPath>
</defs>
</svg>
