<svg width="48" height="48" viewBox="0 0 48 48" fill="none" xmlns="http://www.w3.org/2000/svg">
<path d="M38.78 21.48L22 38.26V44H12C9.78 44 8 42.22 8 40V8C8 6.93913 8.42143 5.92172 9.17157 5.17157C9.92172 4.42143 10.9391 4 12 4H14V18L19 15L24 18V4H36C37.0609 4 38.0783 4.42143 38.8284 5.17157C39.5786 5.92172 40 6.93913 40 8V20.6C39.56 20.84 39.14 21.12 38.78 21.48ZM26 39.92V44H30.08L42.34 31.76L38.26 27.66L26 39.92ZM45.7 26.94L43.06 24.3C42.66 23.9 42 23.9 41.62 24.3L39.66 26.26L43.74 30.34L45.7 28.38C46.1 28 46.1 27.34 45.7 26.94Z" fill="#353535"/>
</svg>
