<svg width="48" height="48" viewBox="0 0 48 48" fill="none" xmlns="http://www.w3.org/2000/svg">
<path d="M43.72 25C42.2738 23.297 40.2232 22.2215 38 22C38 18.1 36.64 14.8 33.92 12.08C31.2 9.36 27.9 8 24 8C20.84 8 18 8.94 15.5 10.86C13 12.78 11.34 15.24 10.5 18.3C8 18.86 5.92 20.16 4.34 22.2C2.76 24.24 2 26.56 2 29.16C2 32.18 3.08 34.76 5.22 36.86C7.38 39 10 40 13 40H37C39.5 40 41.62 39.12 43.38 37.38C45.12 35.62 46 33.5 46 31C46 28.7 45.24 26.7 43.72 25ZM26 34H22V30H26V34ZM29.6 23.64C29 24.42 28.26 25 27.34 25.5C26.82 25.82 26.48 26.14 26.3 26.52C26.0903 26.9846 25.9878 27.4904 26 28H22C22 26.9 22.22 26.16 22.6 25.64C23 25.12 23.7 24.5 24.74 23.82C25.26 23.5 25.68 23.12 26 22.64C26.3 22.18 26.46 21.62 26.46 21C26.46 20.36 26.28 19.88 25.92 19.52C25.56 19.12 25 18.94 24.4 18.94C23.86 18.94 23.42 19.1 23 19.4C22.7 19.7 22.5 20.16 22.5 20.78H18.56C18.46 19.28 19 18 20.12 17.18C21.2 16.4 22.62 16 24.4 16C26.28 16 27.78 16.46 28.86 17.36C29.94 18.26 30.48 19.5 30.48 21C30.48 22 30.18 22.82 29.6 23.64Z" fill="#353535"/>
</svg>
