<svg width="48" height="48" viewBox="0 0 48 48" fill="none" xmlns="http://www.w3.org/2000/svg">
<path d="M27 18H39.1697C39.2067 17.9998 39.2428 17.9887 39.2734 17.9681C39.3041 17.9475 39.328 17.9183 39.3422 17.8841C39.3563 17.8499 39.36 17.8124 39.3528 17.7761C39.3457 17.7398 39.3279 17.7065 39.3019 17.6803L25.8197 4.19808C25.7935 4.17202 25.7601 4.15428 25.7239 4.14711C25.6876 4.13994 25.65 4.14366 25.6159 4.15778C25.5817 4.17191 25.5525 4.19582 25.5318 4.22651C25.5112 4.2572 25.5002 4.2933 25.5 4.33027V16.5C25.5 16.8978 25.658 17.2793 25.9393 17.5606C26.2206 17.8419 26.6022 18 27 18ZM24 25.5C23.1731 25.5 22.5 26.0887 22.5 26.8125V28.5H25.5V26.8125C25.5 26.0887 24.8269 25.5 24 25.5Z" fill="#353535"/>
<path d="M40.125 21H27C25.8065 21 24.6619 20.5259 23.818 19.682C22.9741 18.8381 22.5 17.6935 22.5 16.5V3.375C22.5 3.27554 22.4605 3.18016 22.3902 3.10984C22.3198 3.03951 22.2245 3 22.125 3H13.5C11.9087 3 10.3826 3.63214 9.25736 4.75736C8.13214 5.88258 7.5 7.4087 7.5 9V39C7.5 40.5913 8.13214 42.1174 9.25736 43.2426C10.3826 44.3679 11.9087 45 13.5 45H34.5C36.0913 45 37.6174 44.3679 38.7426 43.2426C39.8679 42.1174 40.5 40.5913 40.5 39V21.375C40.5 21.2755 40.4605 21.1802 40.3902 21.1098C40.3198 21.0395 40.2245 21 40.125 21ZM31.5 36C31.5 36.7957 31.1839 37.5587 30.6213 38.1213C30.0587 38.6839 29.2956 39 28.5 39H19.5C18.7044 39 17.9413 38.6839 17.3787 38.1213C16.8161 37.5587 16.5 36.7957 16.5 36V31.5C16.5 30.7044 16.8161 29.9413 17.3787 29.3787C17.9413 28.8161 18.7044 28.5 19.5 28.5V26.8125C19.5 24.435 21.5184 22.5 24 22.5C26.4816 22.5 28.5 24.435 28.5 26.8125V28.5C29.2956 28.5 30.0587 28.8161 30.6213 29.3787C31.1839 29.9413 31.5 30.7044 31.5 31.5V36Z" fill="#353535"/>
</svg>
