<svg width="48" height="48" viewBox="0 0 48 48" fill="none" xmlns="http://www.w3.org/2000/svg">
<g clip-path="url(#clip0_89_791)">
<path fill-rule="evenodd" clip-rule="evenodd" d="M23 6C24.9661 6.00015 26.8781 6.64381 28.444 7.83268C30.0098 9.02155 31.1436 10.6903 31.672 12.584L31.776 12.994L35.516 12.06C35.7894 11.992 36.074 11.9824 36.3513 12.032C36.6286 12.0817 36.8923 12.1893 37.1251 12.3479C37.3579 12.5065 37.5546 12.7125 37.7023 12.9524C37.8499 13.1923 37.9453 13.4607 37.982 13.74L38 14V17.62C39.1275 18.7011 40.0516 19.976 40.728 21.384L41.004 22H42C42.4899 22.0001 42.9627 22.1799 43.3287 22.5054C43.6948 22.8309 43.9287 23.2795 43.986 23.766L44 24V30C44 30.3292 43.9188 30.6533 43.7636 30.9436C43.6083 31.2338 43.3838 31.4813 43.11 31.664L42.894 31.788L40.558 32.958C39.6017 34.8082 38.2164 36.4026 36.518 37.608L36 37.956V40C35.9999 40.4899 35.8201 40.9627 35.4946 41.3287C35.1691 41.6948 34.7205 41.9287 34.234 41.986L34 42H28C27.5101 41.9999 27.0373 41.8201 26.6713 41.4946C26.3052 41.169 26.0713 40.7205 26.014 40.234L26 40H24C23.9999 40.4899 23.8201 40.9627 23.4946 41.3287C23.1691 41.6948 22.7205 41.9287 22.234 41.986L22 42H16C15.5101 41.9999 15.0373 41.8201 14.6713 41.4946C14.3052 41.169 14.0713 40.7205 14.014 40.234L14 40V37.956C12.5552 37.0323 11.3071 35.8322 10.3275 34.4246C9.34797 33.017 8.65621 31.4298 8.292 29.754C7.11265 29.403 6.06963 28.6981 5.30411 27.7348C4.53858 26.7714 4.08753 25.5961 4.012 24.368L4 24V23C4.00057 22.4902 4.19576 21.9999 4.5457 21.6293C4.89564 21.2586 5.37391 21.0355 5.88279 21.0057C6.39167 20.9758 6.89276 21.1413 7.28367 21.4685C7.67457 21.7957 7.92579 22.2598 7.986 22.766L8 23V24C8 24.296 8.064 24.578 8.18 24.83C8.48527 23.0294 9.16626 21.3133 10.1787 19.7933C11.1911 18.2734 12.5122 16.9836 14.056 16.008C13.9141 14.749 14.0396 13.4742 14.4244 12.267C14.8091 11.0598 15.4444 9.94748 16.2887 9.00277C17.133 8.05805 18.1672 7.30224 19.3237 6.78479C20.4803 6.26734 21.733 5.99991 23 6ZM32 22C31.4696 22 30.9609 22.2107 30.5858 22.5858C30.2107 22.9609 30 23.4696 30 24C30 24.5304 30.2107 25.0391 30.5858 25.4142C30.9609 25.7893 31.4696 26 32 26C32.5304 26 33.0391 25.7893 33.4142 25.4142C33.7893 25.0391 34 24.5304 34 24C34 23.4696 33.7893 22.9609 33.4142 22.5858C33.0391 22.2107 32.5304 22 32 22ZM23 10C21.7886 10 20.6184 10.4398 19.7068 11.2377C18.7953 12.0356 18.2044 13.1372 18.044 14.338C19.0132 14.1129 20.005 13.9995 21 14H27.754L27.894 13.966C27.6568 12.8439 27.0411 11.8375 26.1501 11.1154C25.2591 10.3933 24.1469 9.99952 23 10Z" fill="#353535"/>
</g>
<defs>
<clipPath id="clip0_89_791">
<rect width="48" height="48" fill="white"/>
</clipPath>
</defs>
</svg>
