<svg width="100" height="100" viewBox="0 0 100 100" fill="none" xmlns="http://www.w3.org/2000/svg">
<path d="M52.7201 16.8554C53.3019 18.3491 53.1604 21.3837 52.3899 23.3176L52.1541 23.9308L51.2736 23.7893C49.8428 23.5849 46.9025 23.6635 45.456 23.9623C43.7107 24.3239 42.9874 24.5755 41.0849 25.4717C38.7421 26.5881 36.8082 27.956 34.8113 29.9528C32.3742 32.3585 31.0535 34.4654 29.7956 37.8931C28.522 41.4308 28.1447 45.5818 28.7579 49.2453C29.1824 51.7138 29.6541 53.1132 31.195 56.4623C32.1855 58.6321 32.3899 59.1981 32.3899 59.8742C32.3899 60.8176 31.5881 63.5063 28.6793 72.327C28.4591 72.9717 28.9466 72.1069 29.4811 70.912C31.4623 66.3994 33.1761 61.3994 33.2862 59.827C33.3648 58.6321 33.2705 58.239 32.0755 54.7956C31.5881 53.412 31.3994 52.5943 31.3522 51.7296C31.3208 51.0849 31.3365 50.6761 31.3837 50.8176C31.5409 51.3522 31.6824 51.1006 31.6195 50.3774C31.5881 49.9843 31.651 49.5755 31.7453 49.4811C31.8711 49.3554 31.9182 49.434 31.9182 49.8113C31.9182 50.0943 32.2327 50.8805 32.6572 51.6824C33.0503 52.4371 33.5535 53.3805 33.7421 53.7736C34.2453 54.717 34.4654 56.5094 34.261 58.0031C34.1824 58.6792 33.6478 60.5975 33.0189 62.5314C32.4057 64.3868 31.761 66.5094 31.6038 67.2642C31.2579 68.8365 30.8176 72.1069 30.8333 72.8459C30.8491 73.3176 30.8648 73.3019 31.0535 72.6415C31.2421 71.9969 31.2579 71.9811 31.2893 72.4057C31.305 72.8302 31.3365 72.7987 31.6038 72.0598C31.761 71.6038 32.1541 70.0943 32.4686 68.6792C33.7421 62.9245 35.3302 59.6226 38.239 56.7296C39.6855 55.283 42.4057 53.3648 41.8554 54.1824C41.7925 54.261 41.195 54.7484 40.5346 55.2516C39.8585 55.739 38.8522 56.6667 38.2705 57.2799C36.9497 58.7107 35.2359 61.2893 34.5912 62.8302C34.0881 64.0566 33.0818 67.6101 33.3176 67.3585C33.3962 67.2799 33.8208 66.5094 34.2453 65.6447L35.0315 64.0881L35.2988 64.7484C35.8805 66.1792 37.7201 67.1855 39.7799 67.1855C40.4245 67.1855 41.1321 67.1069 41.3522 67.0283C41.7138 66.8711 41.6824 66.8553 40.8805 66.6824C40.4088 66.5881 39.6698 66.3365 39.2296 66.1321C38.4591 65.7862 37.3428 64.9528 37.4686 64.8428C37.5 64.8113 37.8774 64.9371 38.3019 65.1258C40.3459 66.0377 46.1006 65.4245 49.3868 63.9465C50.0786 63.6321 50.5975 63.5377 52.1227 63.4748C55.7705 63.3019 58.3176 62.3113 61.5723 59.7956C66.3679 56.1006 69.1038 50.2044 68.8208 44.1667C68.7107 41.934 68.3962 40.2044 67.8302 38.695C67.2956 37.2799 67.1069 37.1698 67.4686 38.4748C68.6321 42.6101 68.5063 46.6195 67.1227 50.5818C66.1635 53.2862 64.9371 55.283 62.8774 57.4528C61.195 59.2296 59.8899 60.2044 57.783 61.2421C55.9277 62.1698 54.717 62.5472 53.2233 62.6572L52.2799 62.7201L53.1447 62.5157C53.9151 62.327 53.9466 62.2956 53.4749 62.2799C52.956 62.2642 52.9717 62.2327 54.3554 61.3365C55.7547 60.3931 57.7201 58.4906 58.6321 57.1698C59.3082 56.2107 60.0629 54.8899 60.0629 54.7013C60.0629 54.6069 59.7327 54.827 59.3239 55.1887C57.7516 56.5723 52.3113 59.5126 49.7327 60.3774C48.2705 60.8648 45.9434 61.3994 45.8176 61.2893C45.7862 61.2421 46.478 61.022 47.3742 60.7704C50.3459 59.9371 53.5377 58.5063 55.4874 57.1069C58.3176 55.0943 61.0377 51.4308 62.217 48.0346C62.783 46.3994 62.8774 43.9465 62.4371 42.1069C61.9811 40.1572 59.7484 34.7013 59.5126 34.9371C59.4811 34.9686 59.5126 35.2673 59.5912 35.6132C59.8271 36.6352 59.7799 38.6006 59.4969 39.3396C59.0723 40.4245 57.5943 42.5472 56.478 43.6792C55.5503 44.6226 54.3396 45.566 52.9245 46.478L52.4686 46.761L52.7516 46.2107C52.9088 45.9277 53.7264 44.827 54.5598 43.7736C58.1289 39.3396 59.0252 37.4057 58.6478 35.0315C58.4749 33.8994 58.3333 33.4748 58.3333 34.0566C58.3176 35.0472 57.9717 36.7925 57.6572 37.4843C56.6981 39.5755 52.7673 43.412 49.2925 45.6604C47.9088 46.5566 45.7233 48.239 42.1384 51.1478C41.1635 51.934 43.7421 50.1258 45.1258 49.0409C47.044 47.5472 48.5849 46.4937 48.5849 46.6667C48.5849 47.3742 45.6918 49.827 41.6981 52.4686C39.544 53.8994 37.5472 55.6289 36.651 56.8396C36.305 57.2956 36.305 57.2956 36.3837 56.9182C36.4466 56.6981 36.6981 55.4245 36.9654 54.0881C37.5629 51.0849 37.9088 49.7956 38.6635 47.7516C40.1887 43.6478 41.8711 41.022 47.6258 33.805C50.4245 30.2987 51.761 28.3805 52.7516 26.4308C53.412 25.1258 53.1918 25.2987 52.4528 26.6667C51.2893 28.8365 50 30.6289 46.5409 34.9057C40.912 41.8554 39.1352 44.6855 37.6415 49.1038L36.934 51.1792L37.0126 50.1572C37.1698 47.9403 37.9245 45.2516 39.0094 42.9403C40.0315 40.7547 41.2421 39.1038 43.7736 36.4937C48.978 31.1164 51.2107 28.2547 52.673 25.0943C53.6478 22.9874 53.9937 21.6667 54.0094 20.0786V18.6793L54.5283 19.7799C55.2516 21.305 55.7233 23.6478 55.5818 25.0786C55.3931 27.0755 54.1981 30.739 53.0503 32.8616C52.2484 34.3082 50.9434 36.0063 49.2925 37.7359L47.8774 39.2138L49.3239 38.0031C52.6101 35.2359 54.4497 32.6258 55.739 28.9308C56.5723 26.5094 56.6352 26.1478 56.4466 24.4654C56.1006 21.3994 54.9214 18.5692 53.2076 16.6824C52.8931 16.3208 52.5786 16.0377 52.5157 16.0377C52.4371 16.0377 52.5315 16.4151 52.7201 16.8554ZM51.8554 24.1352C52.0598 24.3239 51.7296 24.3396 50.7076 24.1981C50.0943 24.1038 48.8679 24.0723 47.956 24.1038C46.8239 24.1667 46.5252 24.1509 47.0126 24.0566C47.7359 23.9151 51.7138 23.978 51.8554 24.1352ZM46.1164 24.3239C46.0063 24.3554 45.8176 24.3554 45.7233 24.3239C45.6132 24.2767 45.6918 24.2453 45.912 24.2453C46.1321 24.2453 46.2107 24.2767 46.1164 24.3239ZM51.478 25.1415C51.6195 25.3459 49.8899 28.0189 48.5377 29.6855C47.8616 30.5189 46.5566 32.044 45.6604 33.0503C44.2925 34.5912 43.9308 34.9057 43.5535 34.9057C42.1069 34.9057 39.5912 36.2893 38.2076 37.8459C37.4214 38.7421 36.195 40.5189 35.6918 41.5094C35.4874 41.9025 34.7799 42.7516 34.1195 43.3962C32.6415 44.8428 31.7925 46.2421 31.0849 48.412L30.5503 50.0472L30.3459 48.7264C30.0943 46.934 30.1258 43.4434 30.4088 41.9497C30.9749 38.9937 32.5 35.4717 34.2925 32.9717C36.9811 29.1981 41.4466 26.3679 46.3837 25.3145C47.783 25 51.3208 24.8899 51.478 25.1415ZM41.9654 36.9182C40.5975 38.3648 39.3239 40.173 38.4749 41.8239C37.9403 42.8774 37.8774 42.9403 37.9717 42.3742C38.1918 41.0535 39.2453 39.1667 40.6447 37.6101C41.478 36.6981 41.3994 36.5566 40.4403 37.2642C39.3396 38.066 38.2076 39.7799 37.5629 41.6352C36.9969 43.2862 35.7862 49.4497 35.6761 51.2579C35.6761 51.4937 35.5032 50.9906 34.9843 49.1667C34.8428 48.6635 34.7013 48.2704 34.6698 48.3019C34.6384 48.3333 34.717 49.4497 34.8271 50.7862C35.0943 53.7421 35.1101 54.5598 34.9057 54.5598C34.8271 54.5598 34.7484 54.4654 34.7484 54.3396C34.7484 54.2138 34.2767 53.1918 33.695 52.0598C32.6887 50.0943 32.6415 49.9371 32.5786 48.6792C32.5315 47.8931 32.5786 47.2484 32.6887 47.0755C32.8302 46.8239 32.8616 46.8711 32.8616 47.4057C32.8931 48.6792 33.1289 48.6792 33.2233 47.4057C33.2705 46.7138 33.412 45.8962 33.522 45.5975L33.7264 45.0472L33.805 45.6761L33.8994 46.305L34.1195 45.3931C34.434 44.0566 34.7642 43.695 34.4969 44.9843C34.2453 46.195 34.2296 46.6981 34.434 46.6981C34.5283 46.6981 34.5912 46.5409 34.5912 46.3365C34.5912 44.7799 37.1698 40.0943 39.1981 37.9403C40.2988 36.761 41.9654 35.7862 42.9874 35.7076C43.0503 35.6918 42.5943 36.2421 41.9654 36.9182ZM61.5566 41.2893C61.8554 42.5 61.8554 44.5912 61.5566 45.912C61.305 46.9654 60.3459 49.5755 60.0472 50C59.9214 50.1887 59.9057 50.173 59.9686 49.9214C60.4874 47.956 60.4874 47.044 59.9843 48.5535C59.7642 49.1824 59.4182 50.0472 59.1981 50.4717C58.7579 51.3522 57.1541 53.4906 56.4466 54.1667C56.0063 54.5755 56.0377 54.5126 56.6824 53.5377C57.7201 51.9969 58.3805 50.6289 59.1195 48.5063C59.8271 46.4465 59.9371 45.8019 59.3554 47.2484C58.4749 49.3711 56.478 51.6352 54.2138 53.0503C52.5943 54.0409 50.7233 54.7799 47.8774 55.5031C46.5723 55.8491 45.2988 56.195 45.0472 56.2893C44.544 56.478 44.3239 56.3837 44.7642 56.1635C44.9214 56.0692 45.9277 55.6761 47.0126 55.2673C49.261 54.4182 52.2484 52.9717 53.7893 51.9654C55.0786 51.1321 56.5252 49.6855 57.3899 48.3491C58.1132 47.2484 59.9528 42.7987 60.2988 41.305C60.4245 40.7704 60.5346 39.8742 60.5346 39.3082L60.5503 38.2862L60.9277 39.3082C61.1478 39.8742 61.4151 40.7547 61.5566 41.2893ZM57.8459 43.8837C57.5 44.544 55.3145 46.6824 54.2767 47.3585C53.3333 47.9874 51.6824 48.9151 51.8868 48.695C51.934 48.6478 52.6101 48.1918 53.3805 47.673C54.1667 47.1541 55.0472 46.5094 55.3459 46.2264L55.8962 45.7233L55.1101 46.2736C54.3239 46.8082 52.9874 47.5472 52.9874 47.4371C52.9874 47.4057 53.6635 46.934 54.4969 46.3994C55.3145 45.8491 56.4308 45 56.9654 44.4969C57.5 43.978 57.956 43.5692 57.9874 43.5535C58.0032 43.5535 57.956 43.695 57.8459 43.8837ZM58.1289 46.6667C57.5943 47.956 56.9025 48.9308 55.6447 50.173C54.5283 51.2893 53.6321 51.8868 52.3585 52.3742C51.5409 52.6887 47.9717 53.3805 47.8459 53.2547C47.8145 53.2076 48.4591 52.8459 49.2925 52.4528C51.3837 51.4623 53.1604 50.3616 54.6227 49.1509C55.2988 48.5849 55.8962 48.1132 55.9277 48.1132C55.9591 48.1132 55.912 48.2547 55.8176 48.4277C55.5032 49.0094 55.8019 48.7579 56.4623 47.8616C56.8868 47.3113 57.1698 47.0598 57.2327 47.1855C57.3113 47.2956 57.5472 47.0283 57.8774 46.4937C58.1604 46.0063 58.4277 45.6289 58.4591 45.6604C58.4906 45.6918 58.3333 46.1478 58.1289 46.6667ZM52.1541 62.8302C52.1069 62.8774 51.9654 62.8931 51.8554 62.8459C51.7296 62.7987 51.7767 62.7516 51.9497 62.7516C52.1227 62.7359 52.217 62.783 52.1541 62.8302ZM31.3994 71.7296C31.3522 71.8396 31.3208 71.761 31.3208 71.5409C31.3208 71.3208 31.3522 71.2421 31.3994 71.3365C31.4308 71.4465 31.4308 71.6352 31.3994 71.7296Z" fill="#353535"/>
<path d="M75.3616 19.7484C74.7484 20.0472 74.6541 20.3459 74.2138 22.956C73.3176 28.3648 70.3616 44.6698 68.6321 53.695C67.5629 59.3553 67.3113 60.566 67.044 61.1321C66.9182 61.4151 66.8553 61.7138 66.9025 61.7925C67.044 62.0126 67.4528 65.8333 67.4528 66.934C67.4528 67.4843 67.5157 67.9245 67.5943 67.9245C67.673 67.9245 68.2862 66.9497 68.9623 65.7547C69.6384 64.5755 70.456 63.1761 70.7704 62.6572C71.3836 61.6509 71.6195 60.6918 72.783 54.4025C73.2547 51.8082 75.3616 39.7642 75.6447 37.9717C75.8648 36.6195 75.912 36.5252 76.1792 36.8868C76.4151 37.1698 76.4308 37.1698 76.7296 36.8082C76.9025 36.6038 77.044 36.3208 77.044 36.1792C77.044 36.0377 77.1855 35.8333 77.3742 35.7233C77.6101 35.566 77.6887 35.3774 77.6572 35.0157C77.6258 34.7327 77.673 34.4182 77.7359 34.3082C77.7987 34.1981 77.8616 33.6792 77.8616 33.1604C77.8616 32.6572 77.9088 32.2327 77.9874 32.2327C78.1289 32.2327 78.3491 30.9748 78.3491 30.0786C78.3491 29.6698 78.3962 29.4497 78.5063 29.5126C78.6006 29.5597 78.6321 29.4182 78.5849 29.1195C78.5377 28.8365 78.5849 28.6635 78.6635 28.7264C78.7579 28.7893 78.7736 28.6478 78.7107 28.3962C78.5692 27.8302 78.7579 26.7767 78.9465 27.0755C79.0566 27.2327 79.0881 27.217 79.0881 27.0126C79.0881 26.8711 78.978 26.6824 78.8365 26.6038C78.6792 26.5252 78.5535 26.1635 78.5063 25.739C78.4591 25.3302 78.3491 25 78.2862 25C78.2075 25 78.1447 24.8585 78.1447 24.7013C78.1447 24.5283 78.0818 24.3553 78.0031 24.3082C77.9403 24.261 77.9717 23.6321 78.0818 22.9245C78.4277 20.8019 78.3805 20.3616 77.8145 19.9528C77.1698 19.4969 76.0377 19.4025 75.3616 19.7484ZM77.327 20.0472C77.9088 20.2201 78.0346 20.6604 77.8302 21.7925C77.7044 22.4528 77.5629 22.7987 77.4214 22.7987C77.1698 22.7987 77.1698 22.7201 77.3428 21.6195C77.5 20.7233 77.4371 20.4403 77.0598 20.4403C76.7296 20.4245 76.2264 20.0472 76.3679 19.9057C76.4308 19.8585 76.5881 19.8428 76.7138 19.8742C76.8553 19.9057 77.1226 19.9843 77.327 20.0472ZM77.2642 23.2075C77.5314 23.3176 77.6101 23.978 77.3742 24.1195C77.2956 24.1667 77.2642 24.3553 77.3113 24.5283C77.4214 24.9214 77.3428 24.9214 76.6981 24.5283L76.1792 24.2138H76.6195C77.0283 24.2138 77.1384 23.9465 76.8239 23.7264C76.7453 23.6635 76.7296 23.5063 76.7767 23.3648C76.8868 23.0818 76.9182 23.0818 77.2642 23.2075ZM76.9497 25.0472C77.1855 25.2201 77.2013 25.3616 77.044 26.2579C76.9497 26.8239 76.4151 30 75.8648 33.3333C75.2987 36.6667 74.6069 40.7704 74.3082 42.4528C74.0094 44.1352 73.4434 47.3899 73.0346 49.6855C72.0912 55.1572 70.912 61.3522 70.7704 61.6038C70.6918 61.7453 70.5975 61.6824 70.4717 61.3994C70.3459 61.1321 70.3302 61.022 70.456 61.0849C70.566 61.1635 70.6132 61.0377 70.5818 60.7547C70.5189 59.827 70.5975 59.261 70.7862 59.3711C70.912 59.4497 70.9277 59.4025 70.8491 59.1981C70.6918 58.7893 71.0692 56.5881 71.2736 56.7138C71.3522 56.761 71.3836 56.7296 71.3365 56.6509C71.1635 56.3836 71.3994 55.0314 71.5881 55.1415C71.6824 55.2044 71.6981 55.1572 71.6195 55.0472C71.4623 54.7642 71.8553 52.3428 72.044 52.4528C72.1384 52.5157 72.1698 52.4371 72.1069 52.2642C72.0598 52.0912 72.2013 50.8962 72.4214 49.6069C72.6415 48.3019 72.8931 46.7767 72.9874 46.1792C73.0818 45.5975 73.239 45.1258 73.3019 45.1258C73.3805 45.1258 73.3962 45.0629 73.3491 44.9686C73.3019 44.8899 73.3019 44.4654 73.3648 44.0094C73.4277 43.4906 73.522 43.2862 73.6006 43.4277C73.6792 43.5377 73.695 43.3805 73.6321 43.0346C73.5692 42.6415 73.6006 42.4528 73.7264 42.4528C73.8365 42.4528 73.8679 42.3899 73.8208 42.2956C73.6792 42.0755 73.9151 40.5503 74.0723 40.6604C74.1509 40.7075 74.1667 40.6447 74.1352 40.5189C74.0881 40.4088 74.3396 38.6164 74.6855 36.5409C75.0472 34.4811 75.3931 32.3899 75.4717 31.9182C75.8491 29.4811 75.9906 28.7893 76.1478 28.8836C76.2421 28.9308 76.2579 28.8994 76.195 28.805C76.1478 28.7107 76.1478 28.1289 76.2107 27.4843C76.2893 26.5881 76.3365 26.4308 76.4465 26.7296C76.5252 27.0126 76.5409 26.9182 76.5094 26.4308C76.4623 25.9591 76.478 25.8019 76.5881 25.9591C76.6824 26.1164 76.7296 26.0535 76.7296 25.6918C76.7296 25.4403 76.6509 25.1415 76.5409 25.0314C76.2893 24.7799 76.5881 24.7956 76.9497 25.0472ZM77.956 26.3679C77.8931 26.9025 77.5157 27.044 77.5157 26.5252C77.5157 26.1321 77.6258 25.9434 77.8616 25.9434C77.9403 25.9434 77.9874 26.1321 77.956 26.3679ZM77.7987 27.6887C77.8774 28.3491 77.0598 34.2925 76.8711 34.4969C76.5723 34.827 76.5409 34.3711 76.7925 32.9088C77.4214 29.0566 77.5472 28.0503 77.4686 27.5472C77.4057 27.1855 77.4371 27.044 77.5629 27.0912C77.673 27.1226 77.783 27.3899 77.7987 27.6887ZM77.044 35.2201C77.044 35.2987 76.9025 35.3774 76.7296 35.3774C76.5566 35.3774 76.4151 35.2987 76.4151 35.2201C76.4151 35.1258 76.5566 35.0629 76.7296 35.0629C76.9025 35.0629 77.044 35.1258 77.044 35.2201ZM76.6981 35.9591C76.6352 36.4937 76.2579 36.6352 76.2579 36.1164C76.2579 35.7233 76.3679 35.5346 76.6038 35.5346C76.6824 35.5346 76.7296 35.7233 76.6981 35.9591ZM68.239 61.5566C68.3805 61.7296 68.412 62.1855 68.3491 63.239C68.2547 64.6541 68.0503 65.2359 67.783 64.8113C67.5472 64.434 67.4214 61.7925 67.6258 61.5409C67.8616 61.2579 68.0031 61.2579 68.239 61.5566ZM70.2201 61.7453C70.4874 62.1698 70.4874 62.1855 69.717 63.6478C68.9151 65.173 68.805 65.3302 68.5692 65.1887C68.3805 65.0629 69.1667 61.9497 69.4654 61.5881C69.7799 61.2264 69.8899 61.2421 70.2201 61.7453ZM68.412 65.4088C68.4906 65.4088 68.5535 65.5189 68.5535 65.6447C68.5535 65.8333 68.4906 65.8491 68.1604 65.6918C67.7359 65.5031 67.6101 65.1572 68.0189 65.3145C68.1604 65.3616 68.3333 65.4088 68.412 65.4088Z" fill="#353535"/>
<path d="M54.1038 22.2642C54.1038 22.4371 54.1509 22.4843 54.1981 22.3585C54.2453 22.2484 54.2296 22.1069 54.1824 22.0598C54.1352 21.9969 54.0881 22.0912 54.1038 22.2642Z" fill="#353535"/>
<path d="M57.8774 25.6918C58.0818 25.8805 62.1698 28.3019 62.2013 28.2547C62.2799 28.1761 59.4969 26.3679 58.695 25.9591C58.0975 25.6604 57.7044 25.5346 57.8774 25.6918Z" fill="#353535"/>
<path d="M56.8396 27.6101C56.588 29.717 55.6289 32.1541 54.2767 34.1352C52.8302 36.2893 51.1792 38.0031 47.7201 41.0063C47.0283 41.588 48.2547 40.7704 51.8711 38.2233C52.5472 37.7516 52.9088 37.5786 52.956 37.7201C53.0031 37.8616 53.1447 37.8145 53.4119 37.5472C53.7736 37.2327 53.7893 37.217 53.6478 37.5C53.239 38.2862 50.1572 41.2893 48.4591 42.5472C46.6509 43.8836 46.0535 44.3711 46.5409 44.088C47.5157 43.5377 50.9277 41.2264 51.8868 40.456C53.3019 39.3396 56.0063 36.4623 56.7296 35.3302C57.327 34.3711 57.8931 32.9245 57.8302 32.5C57.7987 32.2641 57.673 32.3585 57.2641 32.9403C56.9811 33.3491 56.7138 33.6635 56.6824 33.6321C56.6509 33.6006 56.8396 32.9717 57.0912 32.2327C57.4371 31.2264 57.5472 30.5975 57.5472 29.6855C57.5472 28.4434 57.3113 26.9497 57.0755 26.8082C57.0126 26.761 56.9025 27.1226 56.8396 27.6101Z" fill="#353535"/>
<path d="M61.8868 31.3836C63.2704 33.2233 64.1509 34.8113 65.1258 37.1855C65.8805 39.0252 66.0063 38.9465 65.3774 37.0283C64.6226 34.7327 63.066 32.1226 61.6195 30.739L60.8176 29.9528L61.8868 31.3836Z" fill="#353535"/>
<path d="M68.0031 36.1635C68.7107 38.8522 69.0252 40.2987 69.2138 41.6038L69.4182 43.1604L69.4654 42.1384C69.544 40.8333 69.261 39.261 68.6792 37.5786C68.2075 36.2264 67.7987 35.3774 68.0031 36.1635Z" fill="#353535"/>
<path d="M55.1572 38.066C53.066 40.8333 50.8962 43.0189 48.4434 44.8585C44.8742 47.5 45.4717 47.2484 49.9214 44.2138C54.7484 40.9277 56.7138 38.7736 56.5723 36.9025L56.5252 36.2421L55.1572 38.066Z" fill="#353535"/>
<path d="M27.3742 48.0503C27.3585 49.3711 27.8302 51.8868 28.3962 53.5063C28.9151 54.9214 30.1101 57.2327 30.6918 57.9088C31.0063 58.2704 30.8648 57.8931 30.1258 56.4465C28.695 53.6635 27.8616 50.9748 27.5315 48.1132L27.4057 46.934L27.3742 48.0503Z" fill="#353535"/>
<path d="M54.2138 62.217C54.3239 62.2641 54.4654 62.2484 54.5126 62.2012C54.5755 62.1541 54.4811 62.1069 54.3082 62.1226C54.1352 62.1226 54.0881 62.1698 54.2138 62.217Z" fill="#353535"/>
<path d="M64.7013 69.1352C63.6635 69.2767 61.6824 69.8585 60.7233 70.2987C60.1572 70.5503 59.7013 70.7547 59.6855 70.7547C59.6698 70.7547 59.6698 70.5189 59.6698 70.2359C59.6698 69.5755 59.2453 69.5126 57.9874 69.9686C57.2327 70.2359 56.8711 70.283 56.0849 70.2044C55.3931 70.1258 54.9057 70.173 54.4182 70.3302C53.8837 70.5189 53.5692 70.5346 52.9245 70.4088C51.5409 70.1258 50.0629 70.7547 50.1887 71.5881C50.2516 72.0912 50.8176 72.1069 51.6038 71.6352C52.2484 71.2421 52.2642 71.2264 51.8396 71.2264C51.6038 71.2264 51.2893 71.3679 51.1478 71.5252C50.8962 71.8239 50.6289 71.8239 50.6289 71.5409C50.6289 70.9591 52.0912 70.4874 53.0503 70.7547C53.5692 70.8962 53.805 70.8805 54.2767 70.6918C54.8742 70.4403 56.305 70.3459 56.2736 70.5503C56.2736 70.6289 55.9591 70.912 55.566 71.1792C55.0629 71.5566 54.6855 71.6981 54.1981 71.7296C53.6164 71.7453 53.6006 71.761 54.0566 71.8082C54.3239 71.8396 54.5598 71.9025 54.5598 71.9497C54.5598 72.1855 53.6478 73.1132 53.4277 73.1132C53.2547 73.1132 53.1918 73.1918 53.239 73.3491C53.3019 73.4906 53.239 73.5849 53.1132 73.5849C52.8145 73.5849 52.2013 74.2453 52.2013 74.544C52.2013 75.2987 53.8837 75.9434 55.0472 75.6289C55.7547 75.4403 56.2107 75.0314 58.805 72.217C59.9843 70.9434 61.022 70.3774 63.3648 69.7327C64.7642 69.3396 65.6761 69.0252 65.3302 69.0566C65.2516 69.0723 64.9686 69.1038 64.7013 69.1352ZM59.5912 70.173C59.5912 70.6604 58.7107 71.478 57.7673 71.8711C57.1069 72.1384 57.0755 72.1698 57.5472 72.0755L58.0975 71.9811L57.6101 72.5C57.3428 72.7987 56.7925 73.4748 56.3994 74.0094C55.4245 75.283 54.5912 75.7233 53.5692 75.456C52.7673 75.2673 52.2956 74.8585 52.4371 74.4969C52.4843 74.3711 52.9088 74.0566 53.3805 73.805C53.8522 73.5692 54.8428 72.7673 55.5818 72.044C56.6667 70.9748 56.9811 70.7547 57.2484 70.8333C57.4843 70.912 57.5472 70.8962 57.4843 70.7704C57.4057 70.6604 57.6887 70.4403 58.2076 70.2044C59.261 69.7013 59.5912 69.7013 59.5912 70.173Z" fill="#353535"/>
<path d="M38.6478 69.544C37.6887 69.827 36.6981 70.4874 36.3208 71.1164C35.912 71.7925 35.912 72.8616 36.3208 73.2704C36.6509 73.6006 37.3742 73.8522 37.5315 73.6792C37.5943 73.6321 37.5 73.5849 37.3271 73.5849C36.7453 73.5849 36.3208 73.1447 36.3208 72.5314C36.3208 70.9591 38.4906 69.827 41.5252 69.8113C42.783 69.8113 44.3868 70.1258 44.5598 70.4245C44.6069 70.4874 44.4182 70.7075 44.1509 70.912C43.7893 71.1792 43.2233 71.3365 42.0755 71.5094C41.195 71.6352 40.2987 71.7453 40.0629 71.7453C39.7013 71.7453 39.6226 71.8082 39.6226 72.1069C39.6226 72.5472 38.522 73.4277 37.9874 73.4277C37.7201 73.4277 37.7044 73.4591 37.8774 73.5692C38.066 73.695 37.9874 73.8522 37.4686 74.4025C37.1226 74.7799 36.5881 75.3459 36.305 75.6604L35.7704 76.2264L30.9748 76.4151C28.3333 76.5094 25.1887 76.6509 23.978 76.7453C21.2421 76.9497 20.1887 77.1855 22.4057 77.1069C23.2704 77.0755 26.5409 77.0126 29.6855 76.9654C34.1352 76.9182 35.3931 76.934 35.3302 77.0912C35.2987 77.1855 35 77.327 34.6541 77.3899C34.3239 77.4528 29.0881 77.5629 23.0346 77.6258C14.5912 77.7044 12.2484 77.7673 12.9717 77.9088C13.5692 78.0031 17.783 78.066 24.3239 78.066H34.7327L34.7799 78.8365C34.8113 79.4654 34.9057 79.6698 35.2516 79.9214C35.6289 80.2044 35.7547 80.2201 36.3208 80.0472C37.2799 79.7642 38.0032 79.0094 39.9686 76.2893C41.7296 73.8522 43.1918 72.1384 43.7264 71.8553C43.8994 71.7453 44.7013 71.761 45.9434 71.8711C47.1855 71.9811 48.0818 71.9969 48.4277 71.9025C48.8837 71.7767 48.6478 71.7296 47.0126 71.6509C45.9277 71.5881 44.8428 71.4937 44.5912 71.4151L44.1352 71.2893L44.8113 70.7862C45.1887 70.5031 45.6289 70.283 45.7862 70.283C45.9434 70.283 46.0692 70.2044 46.0692 70.1101C46.0692 70 45.912 69.9686 45.6447 70.0472C44.9686 70.2201 44.6541 70.1887 43.4748 69.8113C42.0912 69.3868 39.6855 69.261 38.6478 69.544ZM41.6352 72.9403C40.912 73.6321 40.0472 74.6226 39.7013 75.1415C39.0881 76.0535 39.0566 76.0849 38.3962 76.1006C37.6887 76.1006 36.6352 76.4937 36.6352 76.7453C36.6352 76.8239 37.1069 76.8868 37.673 76.8868C38.5849 76.8868 38.695 76.9182 38.522 77.1226C38.3805 77.2956 37.9874 77.3585 36.9969 77.3585H35.6761L37.0755 75.739C39.6226 72.8459 40.2359 72.3113 41.4623 71.9969C42.044 71.8396 42.6258 71.7138 42.7359 71.7138C42.8459 71.6981 42.3585 72.2642 41.6352 72.9403ZM37.9717 78.0189C38.0189 78.066 37.8145 78.412 37.5157 78.805C36.9182 79.5755 36.2893 79.9214 35.5975 79.8428C35.2044 79.7956 35.1415 79.717 35.0943 79.261C35.0157 78.522 35.173 78.0189 35.4874 77.956C35.8962 77.8774 37.8774 77.9245 37.9717 78.0189Z" fill="#353535"/>
<path d="M60.283 71.8396C58.978 72.4371 57.783 73.8207 58.1918 74.3082C58.4434 74.6226 58.5692 74.5912 58.7893 74.1195C59.3553 72.8616 61.0535 71.5566 61.8868 71.7296C62.1384 71.7767 62.0912 71.8553 61.6352 72.1698C60.7075 72.8145 59.5126 74.1981 59.717 74.4025C59.8428 74.5283 60.1101 74.3711 60.7233 73.8207C61.1792 73.4119 61.7767 72.9402 62.0283 72.783C62.3899 72.5472 62.4371 72.4843 62.2013 72.4843C61.9182 72.4843 61.9182 72.4685 62.1698 72.1855C62.327 72.0126 62.4057 71.7924 62.3428 71.7138C62.1855 71.4465 60.9906 71.5251 60.283 71.8396Z" fill="#353535"/>
<path d="M62.673 72.5472C62.7201 72.6887 62.4686 72.9874 61.9969 73.349C61.1635 73.9937 60.9277 74.3082 61.1635 74.4497C61.3365 74.5597 62.8302 73.3648 63.0503 72.9402C63.1447 72.783 63.1289 72.6258 63.0189 72.5157C62.7673 72.2641 62.5629 72.2799 62.673 72.5472Z" fill="#353535"/>
<path d="M43.9308 72.7516C42.9088 73.3491 42.3113 74.0252 42.5314 74.3711C42.7044 74.6384 43.0189 74.544 43.239 74.1509C43.3491 73.9308 43.8208 73.4748 44.3082 73.1289C45.0314 72.5786 45.1101 72.4843 44.7956 72.4843C44.5755 72.4843 44.1981 72.6101 43.9308 72.7516Z" fill="#353535"/>
<path d="M45.8805 73.3019C45.5503 73.6635 45.283 74.0409 45.283 74.1509C45.283 74.434 45.6447 74.6226 45.7233 74.3711C45.7704 74.261 46.0377 73.8994 46.3208 73.5849C46.6195 73.2547 46.8553 72.9088 46.8553 72.8145C46.8553 72.4685 46.478 72.6572 45.8805 73.3019Z" fill="#353535"/>
<path d="M47.1698 73.3648C46.5094 73.978 46.4308 74.1195 46.6195 74.3082C46.8868 74.5755 47.1698 74.5912 47.1698 74.3396C47.1698 74.2296 47.5 73.805 47.9088 73.3962C48.5692 72.7201 48.6164 72.6415 48.3019 72.6415C48.0975 72.6415 47.6101 72.9403 47.1698 73.3648Z" fill="#353535"/>
<path d="M44.5912 73.522C44.0094 74.0723 43.8837 74.2925 44.0094 74.4182C44.1509 74.5597 44.3711 74.434 44.9057 73.8679C45.566 73.1761 45.7547 72.7987 45.4717 72.7987C45.3931 72.7987 45 73.1289 44.5912 73.522Z" fill="#353535"/>
<path d="M48.5849 73.3648C47.956 73.9308 47.8145 74.261 48.1132 74.4497C48.1918 74.4969 48.4748 74.434 48.7264 74.2925C49.0409 74.1352 49.2296 74.1195 49.2925 74.2296C49.434 74.434 49.717 74.3396 49.7799 74.0409C49.8113 73.9308 49.8742 73.6006 49.9371 73.3491L50.0315 72.8774L49.3711 73.5377C48.7579 74.1667 48.4277 74.3711 48.4277 74.1038C48.4277 74.0409 48.695 73.7264 49.0094 73.3962C49.7484 72.6415 49.4182 72.6101 48.5849 73.3648Z" fill="#353535"/>
<path d="M30.3459 73.7421C28.9623 74.0409 21.8868 76.2893 22.1226 76.3679C22.2013 76.3994 23.0975 76.1635 24.1352 75.8648C25.173 75.566 27.3585 74.9214 28.9937 74.4497C32.6887 73.3805 33.0975 73.1604 30.3459 73.7421Z" fill="#353535"/>
<path d="M63.3019 73.695C63.239 73.7736 63.1132 73.8365 63.0346 73.8365C62.956 73.8522 62.8302 73.8679 62.7358 73.8836C62.5472 73.8994 62.5157 74.3711 62.7044 74.3711C62.783 74.3711 63.0031 74.1981 63.2075 73.978C63.5377 73.6321 63.6164 73.3962 63.3019 73.695Z" fill="#353535"/>
<path d="M67.2956 73.6321C67.3428 73.6792 68.3019 73.9623 69.4182 74.261C70.5503 74.5597 72.5629 75.1258 73.8994 75.5189C77.5943 76.588 78.1761 76.5566 74.6855 75.4717C70.5975 74.2138 66.9968 73.3176 67.2956 73.6321Z" fill="#353535"/>
<path d="M40.5975 76.195C40.4874 76.2421 40.3302 76.4308 40.2359 76.6038L40.0629 76.934L44.0409 76.8396C47.7201 76.7453 72.4528 76.9497 76.8082 77.1069C77.8459 77.1384 78.5063 77.1069 78.2862 77.044C77.7987 76.9025 73.9465 76.6352 69.261 76.3994C65.6447 76.2264 40.9277 76.0535 40.5975 76.195Z" fill="#353535"/>
<path d="M42.5 77.3113C39.8585 77.3585 39.6226 77.3899 39.4654 77.6729C39.3239 77.9402 39.3711 77.9874 39.9214 78.1446C41.0063 78.4277 42.9088 78.6163 46.6981 78.7736C50.3774 78.9465 54.1038 78.8365 59.8271 78.4277C61.1321 78.3333 67.5 78.2075 73.978 78.1446C80.4717 78.066 86.1321 77.9402 86.5566 77.8616C87.1069 77.7673 85.173 77.7044 80.1887 77.6887C76.2579 77.6729 70.7076 77.5943 67.8459 77.5157C61.7925 77.3585 46.6352 77.2327 42.5 77.3113Z" fill="#353535"/>
</svg>
