<svg width="64" height="64" viewBox="0 0 64 64" fill="none" xmlns="http://www.w3.org/2000/svg">
<path d="M26.6667 8.00009C25.9111 8.00009 25.2773 7.74409 24.7653 7.23209C24.2533 6.72009 23.9982 6.0872 24 5.33342C24 4.57787 24.256 3.94409 24.768 3.43209C25.28 2.92009 25.9129 2.66498 26.6667 2.66676H37.3333C38.0889 2.66676 38.7227 2.92276 39.2347 3.43476C39.7467 3.94676 40.0018 4.57965 40 5.33342C40 6.08898 39.744 6.72276 39.232 7.23476C38.72 7.74676 38.0871 8.00187 37.3333 8.00009H26.6667ZM32 58.6668C28.6667 58.6668 25.544 58.033 22.632 56.7654C19.72 55.4979 17.1769 53.7761 15.0027 51.6001C12.8231 49.4223 11.1111 46.8774 9.86667 43.9654C8.62222 41.0534 8 37.9539 8 34.6668C8 31.3779 8.63378 28.2774 9.90133 25.3654C11.1689 22.4534 12.8907 19.9094 15.0667 17.7334C17.2444 15.5556 19.7893 13.833 22.7013 12.5654C25.6133 11.2979 28.7129 10.665 32 10.6668C34.8 10.6668 37.4667 11.1334 40 12.0668C42.5333 13.0001 44.8444 14.3112 46.9333 16.0001L48.9333 14.0001C49.4222 13.5112 50.0338 13.2552 50.768 13.2321C51.5022 13.209 52.1351 13.465 52.6667 14.0001C53.1556 14.489 53.4116 15.1005 53.4347 15.8348C53.4578 16.569 53.224 17.2019 52.7333 17.7334L50.8 19.7334C52.4 21.8223 53.6667 24.1334 54.6 26.6668C55.5333 29.2001 56 31.8668 56 34.6668C56 37.9556 55.3778 41.0561 54.1333 43.9681C52.8889 46.8801 51.1778 49.4241 49 51.6001C46.8222 53.7779 44.2773 55.5005 41.3653 56.7681C38.4533 58.0356 35.3316 58.6685 32 58.6668ZM34.3333 29.3334H47.8667C48.4444 29.3334 48.8667 29.1441 49.1333 28.7654C49.4 28.3868 49.4222 27.9539 49.2 27.4668C48.3111 25.4223 47.1218 23.5885 45.632 21.9654C44.1422 20.3423 42.3982 19.0205 40.4 18.0001C40.0444 17.7779 39.6329 17.7441 39.1653 17.8988C38.6978 18.0534 38.3538 18.3316 38.1333 18.7334L33.1333 27.3334C32.8667 27.7779 32.8782 28.2223 33.168 28.6668C33.4578 29.1112 33.8462 29.3334 34.3333 29.3334ZM26.2 30.0001C26.4667 30.4445 26.8444 30.6668 27.3333 30.6668C27.8222 30.6668 28.2 30.4445 28.4667 30.0001L35.2667 18.2668C35.5333 17.7779 35.5778 17.3219 35.4 16.8988C35.2222 16.4756 34.8667 16.2205 34.3333 16.1334C32.2 15.8223 30.0667 15.9112 27.9333 16.4001C25.8 16.889 23.7333 17.7779 21.7333 19.0668C21.3778 19.289 21.144 19.6339 21.032 20.1014C20.92 20.569 20.976 21.0019 21.2 21.4001L26.2 30.0001ZM15.2 37.3334H25C25.4889 37.3334 25.8782 37.1112 26.168 36.6668C26.4578 36.2223 26.4684 35.7779 26.2 35.3334L19.4 23.6001C19.1333 23.1112 18.7778 22.8445 18.3333 22.8001C17.8889 22.7556 17.4889 22.9556 17.1333 23.4001C15.8444 25.1779 14.8551 27.1112 14.1653 29.2001C13.4756 31.289 13.2204 33.4668 13.4 35.7334C13.4444 36.1779 13.6338 36.5556 13.968 36.8668C14.3022 37.1779 14.7129 37.3334 15.2 37.3334ZM23.6 51.3334C23.9556 51.5556 24.3671 51.5894 24.8347 51.4348C25.3022 51.2801 25.6462 51.0019 25.8667 50.6001L30.8667 42.0001C31.1333 41.5556 31.1227 41.1112 30.8347 40.6668C30.5467 40.2223 30.1573 40.0001 29.6667 40.0001H16.1333C15.5556 40.0001 15.1333 40.1894 14.8667 40.5681C14.6 40.9468 14.5778 41.3796 14.8 41.8668C15.6889 43.9112 16.8782 45.745 18.368 47.3681C19.8578 48.9912 21.6018 50.313 23.6 51.3334ZM29.6667 53.2001C31.9778 53.5112 34.2 53.3885 36.3333 52.8321C38.4667 52.2757 40.4444 51.4205 42.2667 50.2668C42.6222 50.0445 42.856 49.6996 42.968 49.2321C43.08 48.7645 43.024 48.3316 42.8 47.9334L37.8 39.3334C37.5333 38.889 37.1556 38.6668 36.6667 38.6668C36.1778 38.6668 35.8 38.889 35.5333 39.3334L28.7333 51.0668C28.4667 51.5556 28.4222 52.0117 28.6 52.4348C28.7778 52.8579 29.1333 53.113 29.6667 53.2001ZM44.6 45.7334C44.8667 46.2223 45.2222 46.489 45.6667 46.5334C46.1111 46.5779 46.5111 46.3779 46.8667 45.9334C48.2 44.1112 49.2 42.1663 49.8667 40.0988C50.5333 38.0312 50.7778 35.865 50.6 33.6001C50.5556 33.1556 50.3662 32.7779 50.032 32.4668C49.6978 32.1556 49.2871 32.0001 48.8 32.0001H39C38.5111 32.0001 38.1218 32.2223 37.832 32.6668C37.5422 33.1112 37.5316 33.5556 37.8 34.0001L44.6 45.7334Z" fill="white"/>
</svg>
