<svg width="64" height="64" viewBox="0 0 64 64" fill="none" xmlns="http://www.w3.org/2000/svg">
<path d="M9.31199 21.507L12.7413 50.667H51.2587L54.688 21.507L43.9947 28.635L32 11.843L20.0053 28.635L9.31199 21.507ZM7.46932 13.867L18.6667 21.3337L29.8293 5.70705C30.076 5.36137 30.4017 5.0796 30.7792 4.88519C31.1568 4.69078 31.5753 4.58936 32 4.58936C32.4247 4.58936 32.8432 4.69078 33.2208 4.88519C33.5983 5.0796 33.924 5.36137 34.1707 5.70705L45.3333 21.3337L56.5333 13.867C56.9572 13.585 57.4529 13.4303 57.962 13.421C58.471 13.4118 58.9721 13.5484 59.4059 13.8148C59.8397 14.0813 60.1883 14.4663 60.4103 14.9245C60.6322 15.3826 60.7184 15.8948 60.6587 16.4004L56.2773 53.6457C56.2009 54.2944 55.8891 54.8924 55.401 55.3265C54.9129 55.7605 54.2825 56.0003 53.6293 56.0004H10.3707C9.7175 56.0003 9.08709 55.7605 8.599 55.3265C8.1109 54.8924 7.79908 54.2944 7.72266 53.6457L3.34132 16.3977C3.28212 15.8923 3.36875 15.3806 3.59098 14.9228C3.81321 14.4651 4.16176 14.0805 4.59549 13.8144C5.02921 13.5483 5.53001 13.4119 6.03876 13.4212C6.54751 13.4306 7.04297 13.5853 7.46666 13.867H7.46932ZM32 40.0004C30.5855 40.0004 29.229 39.4385 28.2288 38.4383C27.2286 37.4381 26.6667 36.0815 26.6667 34.667C26.6667 33.2526 27.2286 31.896 28.2288 30.8958C29.229 29.8956 30.5855 29.3337 32 29.3337C33.4145 29.3337 34.771 29.8956 35.7712 30.8958C36.7714 31.896 37.3333 33.2526 37.3333 34.667C37.3333 36.0815 36.7714 37.4381 35.7712 38.4383C34.771 39.4385 33.4145 40.0004 32 40.0004Z" fill="white"/>
</svg>
