<svg width="64" height="64" viewBox="0 0 64 64" fill="none" xmlns="http://www.w3.org/2000/svg">
<path d="M51.9736 9C52.0118 9.00578 51.8742 9.01087 51.5907 9.01087C49.4509 9.01087 47.4548 11.3296 47.4548 14.5015C47.4548 16.1001 47.9995 17.5309 48.7985 18.5218L49.9795 19.9812L48.1228 20.2667C46.9022 20.4537 46.0811 21.0102 45.392 21.9246C44.7028 22.8389 44.1963 24.1416 43.8604 25.6633C43.2609 28.3787 43.2142 31.7232 43.2102 34.6975H46.7285L46.7971 35.7054L47.6171 48.0267H55.2246L56.1528 35.6942L56.2287 34.6973H59.9276C59.8999 31.7633 59.7404 28.4631 59.0787 25.7679C58.7073 24.2552 58.1791 22.9527 57.4966 22.0256C56.8141 21.0985 56.0286 20.5402 54.9462 20.3388L53.1291 19.9993L54.3177 18.5833C55.1532 17.5865 55.7263 16.1399 55.7263 14.5014C55.7263 11.526 53.9347 9.2528 51.995 9.00358L51.9733 9.00012L51.9736 9ZM23.6825 9.39012C18.3769 9.39082 12.1414 10.0112 5 11.4598V13.6706C35.9807 9.3188 44.4798 18.0804 31.1527 22.8421C17.5906 27.6877 6.82023 52.0011 49.5787 54.1206C50.0829 54.1712 50.6017 54.2 51.1318 54.2C53.7072 54.2 56.026 53.5698 57.6194 52.6287C59.2131 51.6877 60 50.5318 60 49.4031C60 48.2743 59.2131 47.1185 57.6195 46.1774C57.5929 46.1614 57.5638 46.1459 57.5366 46.1302L57.3054 49.1899L57.2295 50.1905H45.5944L45.5293 49.179L45.1501 43.4572C30.332 43.7809 26.2791 31.8391 35.8919 28.376C38.2483 27.5271 40.1788 26.5455 41.6931 25.4827C41.7128 25.3877 41.7301 25.2914 41.7509 25.1972C42.128 23.4894 42.7053 21.9031 43.6691 20.6242C44.2408 19.8655 44.9683 19.229 45.8329 18.7781C45.4718 13.8601 37.934 9.38793 23.6824 9.39012H23.6825Z" fill="white"/>
</svg>
