<svg width="120" height="87" viewBox="0 0 120 87" fill="none" xmlns="http://www.w3.org/2000/svg">
<path fill-rule="evenodd" clip-rule="evenodd" d="M34.8939 -0.000189403L0.729919 -0.000366211L120 86.122L120 61.4527L34.8939 -0.000189403ZM42.9558 13.8852C42.8452 13.3155 42.4164 12.761 41.6696 12.2217L39.8209 10.8868L35.6418 16.6744L36.869 17.5605L38.3554 15.502L38.8819 15.8822C39.3041 16.1871 39.6963 16.3919 40.0582 16.4967C40.4221 16.5989 40.7546 16.6222 41.0558 16.5666C41.3595 16.5129 41.6326 16.3989 41.8749 16.2245C42.1191 16.0475 42.3327 15.8324 42.5157 15.579C42.9216 15.0169 43.0683 14.4523 42.9558 13.8852ZM40.322 12.7785L40.8802 13.1815C41.2127 13.4216 41.4076 13.6688 41.465 13.923C41.5242 14.1745 41.451 14.4428 41.2451 14.7279C41.0984 14.9311 40.9322 15.064 40.7464 15.1266C40.5607 15.1892 40.3614 15.1899 40.1487 15.1287C39.936 15.0674 39.7148 14.9539 39.4852 14.7881L39.0814 14.4965L40.322 12.7785ZM40.7326 20.3504L44.0658 22.7572L44.7976 21.7438L42.6916 20.2231L43.7692 18.7307L45.7288 20.1456L46.4548 19.1401L44.4953 17.7252L45.4128 16.4544L47.5189 17.9751L48.2449 16.9696L44.9117 14.5628L40.7326 20.3504ZM48.6025 26.033L49.9959 27.0392L49.9475 22.427L54.0642 21.1716L52.7578 20.2283L48.6597 21.5332L50.6834 18.7304L49.4563 17.8443L45.2772 23.6319L46.5044 24.518L48.6225 21.5846L48.6025 26.033ZM57.0261 29.5558C57.4018 29.269 57.7507 28.9026 58.0727 28.4566C58.5072 27.8549 58.7865 27.2595 58.9106 26.6706C59.0374 26.0836 58.9862 25.5206 58.757 24.9817C58.5304 24.4447 58.1031 23.9494 57.475 23.4959C56.8442 23.0404 56.2357 22.7878 55.6494 22.7378C55.0631 22.6879 54.51 22.8145 53.99 23.1175C53.4746 23.4199 53.0006 23.8706 52.568 24.4697C52.244 24.9183 52.005 25.3661 51.851 25.813C51.6969 26.2599 51.6368 26.6962 51.6706 27.1221C51.707 27.5499 51.8466 27.9599 52.0894 28.3521C52.3341 28.7416 52.6927 29.1069 53.1651 29.448C53.6375 29.7891 54.097 30.0145 54.5438 30.1243C54.9924 30.2314 55.4242 30.234 55.839 30.1321C56.2566 30.0321 56.6522 29.84 57.0261 29.5558ZM53.2446 26.5603C53.3559 26.195 53.5573 25.8104 53.8488 25.4066C54.1423 25.0002 54.444 24.688 54.7539 24.4701C55.0683 24.2515 55.39 24.1425 55.7188 24.143C56.0522 24.1429 56.3918 24.2676 56.7375 24.5172C57.2574 24.8926 57.5051 25.3365 57.4805 25.8487C57.4559 26.361 57.2245 26.9206 56.7862 27.5276C56.4946 27.9314 56.1929 28.2435 55.8811 28.4641C55.5738 28.6838 55.2548 28.7948 54.9241 28.7969C54.5952 28.7963 54.2566 28.6703 53.9083 28.4187C53.5652 28.171 53.3417 27.8911 53.2377 27.5792C53.1356 27.2646 53.1379 26.9249 53.2446 26.5603ZM61.5126 28.447L59.6274 33.9938L60.7516 34.8056L65.517 31.3505L65.5526 31.3763L65.1773 31.846C65.0124 32.0522 64.8402 32.2712 64.6608 32.503C64.484 32.7367 64.3299 32.9446 64.1984 33.1267L62.2203 35.8661L63.3644 36.6922L67.5434 30.9046L65.8729 29.6983L61.2243 33.0751L61.2005 33.0579L63.0266 27.6431L61.356 26.4368L57.177 32.2244L58.2735 33.0162L60.2173 30.3243C60.3602 30.1264 60.515 29.9009 60.6817 29.6478C60.8483 29.3948 61.0032 29.1553 61.1463 28.9293L61.477 28.4213L61.5126 28.447ZM64.8251 37.7469L68.1583 40.1538L68.8901 39.1403L66.7841 37.6196L67.8617 36.1272L69.8213 37.5422L70.5473 36.5367L68.5878 35.1217L69.5053 33.851L71.6113 35.3717L72.3374 34.3662L69.0042 31.9594L64.8251 37.7469ZM72.8889 43.5696L74.1122 44.4529L78.2912 38.6653L77.068 37.782L75.4301 40.0504L73.138 38.3953L74.7759 36.127L73.5487 35.2409L69.3697 41.0285L70.5969 41.9146L72.4006 39.4167L74.6926 41.0717L72.8889 43.5696ZM80.847 47.7621L84.2886 42.9959L80.9158 40.5605C80.4649 41.0459 80.0277 41.479 79.6042 41.8598C79.1807 42.2406 78.7691 42.5798 78.3695 42.8775C77.9699 43.1751 77.5791 43.441 77.1972 43.6752C76.8153 43.9094 76.4406 44.1226 76.0729 44.3148L75.6255 43.9918L73.6704 46.6995L74.854 47.5542L76.0717 45.8678L79.6979 48.4862L78.4802 50.1726L79.6638 51.0272L81.619 48.3195L80.847 47.7621ZM81.1522 42.285L82.3279 43.1339L79.6238 46.8788L77.3634 45.2467C77.7004 45.0524 78.041 44.8365 78.3851 44.5991C78.7318 44.3637 79.0694 44.1156 79.3981 43.8551C79.7313 43.5938 80.0466 43.3296 80.3439 43.0624C80.6412 42.7953 80.9106 42.5361 81.1522 42.285ZM85.8538 50.3535L90.6027 47.5551L89.3359 46.6404L86.5753 48.345C86.4865 48.4013 86.3861 48.4653 86.2741 48.537C86.164 48.606 86.0562 48.6747 85.9506 48.7431C85.8496 48.8107 85.7647 48.8698 85.696 48.9206L85.6524 48.8891C85.6809 48.8053 85.7077 48.7042 85.7329 48.5859C85.7626 48.4668 85.7891 48.3494 85.8125 48.2338C85.8403 48.1174 85.8614 48.0242 85.8758 47.9543L86.6044 44.6681L85.306 43.7305L84.3077 49.3335C84.1714 49.4278 84.0331 49.5025 83.8928 49.5578C83.7525 49.6131 83.605 49.6311 83.4503 49.6117C83.2956 49.5924 83.1286 49.5179 82.9491 49.3884C82.8119 49.2893 82.673 49.1729 82.5326 49.0394C82.3966 48.9051 82.2808 48.7653 82.1851 48.6198L81.4247 49.6729C81.5386 49.8153 81.6721 49.9559 81.825 50.0944C81.976 50.2356 82.1228 50.3576 82.2653 50.4605C82.7192 50.7883 83.1366 50.9832 83.5173 51.0453C83.8999 51.1048 84.2776 51.0684 84.6503 50.9359C85.0248 50.8009 85.426 50.6067 85.8538 50.3535ZM87.152 53.8686L90.4852 56.2755L91.217 55.262L89.111 53.7413L90.1886 52.2489L92.1482 53.6638L92.8742 52.6583L90.9147 51.2434L91.8322 49.9727L93.9383 51.4934L94.6643 50.4879L91.3311 48.0811L87.152 53.8686ZM96.0322 53.3728L94.147 58.9195L95.2713 59.7313L100.037 56.2763L100.072 56.302L99.6969 56.7718C99.532 56.9779 99.3598 57.1969 99.1804 57.4287C99.0036 57.6624 98.8495 57.8703 98.718 58.0524L96.7399 60.7918L97.884 61.6179L102.063 55.8303L100.392 54.6241L95.7439 58.0008L95.7202 57.9837L97.5462 52.5688L95.8757 51.3626L91.6966 57.1501L92.7931 57.9419L94.7369 55.25C94.8798 55.0521 95.0346 54.8266 95.2013 54.5735C95.3679 54.3205 95.5228 54.081 95.6659 53.855L95.9966 53.347L96.0322 53.3728Z" fill="#D3CE51"/>
</svg>
