<svg width="783" height="877" viewBox="0 0 783 877" fill="none" xmlns="http://www.w3.org/2000/svg">
<path d="M-2 39.3632C-96.8 57.7632 -155.5 135.696 -173 172.363L-160.5 824.363C-67.6667 736.863 129.6 593.663 176 720.863C222.4 848.063 374 877.863 444 876.863C544.5 849.03 752 778.863 778 720.863C804 662.863 700.833 590.696 646 561.863C536.5 484.53 345.2 319.963 456 280.363C566.8 240.763 506.833 162.196 463 127.863C444.5 98.3632 391.1 33.6632 325.5 10.8632C243.5 -17.6368 116.5 16.3632 -2 39.3632Z" fill="#D9D9D9" fill-opacity="0.3"/>
</svg>
