<svg width="689" height="1792" viewBox="0 0 689 1792" fill="none" xmlns="http://www.w3.org/2000/svg">
<path d="M344.441 1730.98C458.159 1818.11 631.877 1791.64 704.521 1767.51L1705.52 964.993C1486.29 963.655 1086.78 909.16 1242.58 701.878C1398.38 494.596 1308.47 283.676 1244.05 204.126C1110.56 121.822 815.245 -32.7571 701.847 7.35309C588.448 47.4632 569.077 253.716 573.566 351.829C551.863 571.633 468.205 991.252 307.202 911.288C146.199 831.324 78.0884 995.473 64.1585 1087.54C34.9772 1144.54 -17.5038 1284.36 6.02329 1387.6C35.4322 1516.65 202.293 1622.07 344.441 1730.98Z" fill="#D9D9D9" fill-opacity="0.3"/>
</svg>
